<?xml version="1.0" encoding="UTF-8" standalone="no"?>
<!-- Created with Inkscape (http://www.inkscape.org/) -->

<svg
   width="260mm"
   height="260mm"
   viewBox="0 0 260 260"
   version="1.1"
   id="svg1320"
   inkscape:version="1.1.1 (3bf5ae0d25, 2021-09-20)"
   sodipodi:docname="MX_simple.svg"
   xmlns:inkscape="http://www.inkscape.org/namespaces/inkscape"
   xmlns:sodipodi="http://sodipodi.sourceforge.net/DTD/sodipodi-0.dtd"
   xmlns="http://www.w3.org/2000/svg"
   xmlns:svg="http://www.w3.org/2000/svg">
  <sodipodi:namedview
     id="namedview1322"
     pagecolor="#ffffff"
     bordercolor="#666666"
     borderopacity="1.0"
     inkscape:pageshadow="2"
     inkscape:pageopacity="0.0"
     inkscape:pagecheckerboard="0"
     inkscape:document-units="mm"
     showgrid="false"
     width="25mm"
     inkscape:zoom="0.73406285"
     inkscape:cx="292.20931"
     inkscape:cy="452.95849"
     inkscape:window-width="1920"
     inkscape:window-height="1009"
     inkscape:window-x="-8"
     inkscape:window-y="-8"
     inkscape:window-maximized="1"
     inkscape:current-layer="layer1" />
  <defs
     id="defs1317" />
  <g
     inkscape:label="Layer 1"
     inkscape:groupmode="layer"
     id="layer1">
    <path
       style="fill:#d9d9d9;stroke:#ffffff;stroke-width:2;stroke-linecap:butt;stroke-linejoin:miter;stroke-opacity:1;fill-opacity:1;stroke-miterlimit:4;stroke-dasharray:none"
       d="m 159.10701,153.27331 -21.22891,-7.02058 -4.68039,-15.04411 -20.56027,-5.68333 -6.01764,-25.24066 12.87106,-21.396061 11.70097,2.50735 16.21421,32.595561 14.04116,4.68039 z"
       id="path417" />
    <path
       style="fill:#d9d9d9;stroke:#ffffff;stroke-width:2;stroke-linecap:butt;stroke-linejoin:miter;stroke-opacity:1;fill-opacity:1;stroke-miterlimit:4;stroke-dasharray:none"
       d="m 106.6198,100.28463 6.01764,25.24066 6.1848,1.50441 -2.3402,7.02059 -7.68921,-1.50441 -6.35195,17.55145 -9.360779,-4.68039 -4.178919,3.17598 -27.079389,-29.92105 0.334314,-6.85343 -18.220084,-21.396057 -13.038225,-30.088211 -9.69509,-5.014701 -0.167155,16.214202 12.536754,15.87989 16.88283,41.287707 8.692149,11.1995 -2.841664,4.34608 -5.014704,-1.67157 L 33.906621,123.35226 35.411032,111.31697 14.51644,94.099829 22.539963,85.240524 10.838992,72.202299 2.9826264,44.955754 l 19.8916506,2.005881 28.5838,17.217142 18.554395,1.671567 3.008821,-5.516172 14.709793,1.170097 24.404884,29.753898 z"
       id="path419" />
    <path
       style="fill:#d9d9d9;stroke:#ffffff;stroke-width:2;stroke-linecap:butt;stroke-linejoin:miter;stroke-opacity:1;fill-opacity:1;stroke-miterlimit:4;stroke-dasharray:none"
       d="m 154.42662,151.60174 -2.50735,11.03235 -5.34902,0.66862 -7.18774,10.86519 -18.05292,-3.51029 5.85048,-12.03528 -3.51029,-3.00883 -11.1995,8.35784 -5.51617,-2.00588 3.67745,-9.86225 -8.19068,-2.00588 6.35195,-17.55145 7.68921,1.50441 2.3402,-7.02059 14.37547,4.17892 4.68039,15.04411 z"
       id="path421" />
    <path
       style="fill:#d9d9d9;stroke:#ffffff;stroke-width:2;stroke-linecap:butt;stroke-linejoin:miter;stroke-opacity:1;fill-opacity:1;stroke-miterlimit:4;stroke-dasharray:none"
       d="m 139.38251,174.1679 -3.67744,14.37548 -10.86519,-1.33725 -3.84461,6.85342 -9.19362,-1.1701 -19.223019,-14.20832 -2.173039,-10.0294 4.178919,-8.19068 -5.683329,-11.86813 4.178919,-3.17598 9.360779,4.68039 8.19068,2.00588 -3.67745,9.86225 5.51617,2.00588 11.1995,-8.35784 3.51029,3.00883 -5.85048,12.03528 z"
       id="path423"
       sodipodi:nodetypes="cccccccccccccccccc" />
    <path
       style="fill:#d9d9d9;stroke:#ffffff;stroke-width:2;stroke-linecap:butt;stroke-linejoin:miter;stroke-opacity:1;fill-opacity:1;stroke-miterlimit:4;stroke-dasharray:none"
       d="m 135.70507,188.54338 3.67744,-14.37548 1.50441,-2.34019 11.36666,5.18185 -1.33725,15.21127 z"
       id="path425"
       sodipodi:nodetypes="cccccc" />
    <path
       style="fill:#d9d9d9;stroke:#ffffff;stroke-width:2;stroke-linecap:butt;stroke-linejoin:miter;stroke-opacity:1;fill-opacity:1;stroke-miterlimit:4;stroke-dasharray:none"
       d="m 159.10701,153.27331 -4.68039,-1.67157 -2.50735,11.03235 -5.34902,0.66862 -5.68333,8.525 11.36666,5.18185 -1.33725,15.21127 8.35783,2.17303 10.86519,-5.85048 10.0294,8.02352 14.04117,5.34902 3.67745,-3.17598 -4.68039,-8.69215 -17.21714,-6.01764 z"
       id="path517" />
    <path
       style="fill:#d9d9d9;stroke:#ffffff;stroke-width:2;stroke-linecap:butt;stroke-linejoin:miter;stroke-opacity:1;fill-opacity:1;stroke-miterlimit:4;stroke-dasharray:none"
       d="m 120.99527,194.05955 3.84461,-6.85342 10.86519,1.33725 15.21126,3.67745 8.35783,2.17303 10.86519,-5.85048 10.0294,8.02352 14.04117,5.34902 3.67745,-3.17598 11.70097,-4.34608 18.38724,10.69803 -1.00294,5.85049 -11.36666,-0.50147 -5.0147,12.70391 -14.54264,-11.70097 -12.36959,-2.34019 -10.02941,6.18479 -30.92399,-8.8593 z"
       id="path519"
       sodipodi:nodetypes="ccccccccccccccccccc" />
    <path
       style="fill:#d9d9d9;stroke:#ffffff;stroke-width:2;stroke-linecap:butt;stroke-linejoin:miter;stroke-opacity:1;fill-opacity:1;stroke-miterlimit:4;stroke-dasharray:none"
       d="m 209.58834,194.39386 -11.70097,4.34608 -4.68039,-8.69215 23.5691,-6.85343 7.85636,-9.02646 -0.50147,-13.20538 29.25243,-7.3549 3.17598,7.3549 -6.1848,7.3549 0.33431,14.70979 -6.01764,0.83578 -5.18186,8.19068 -18.72155,0.66863 -1.1701,7.68921 z"
       id="path1299" />
  </g>
</svg>
