<?xml version="1.0" encoding="UTF-8" standalone="no"?>
<svg
   width="959"
   height="593"
   version="1.1"
   id="svg1027"
   sodipodi:docname="US.svg"
   inkscape:version="1.1.1 (3bf5ae0d25, 2021-09-20)"
   xmlns:inkscape="http://www.inkscape.org/namespaces/inkscape"
   xmlns:sodipodi="http://sodipodi.sourceforge.net/DTD/sodipodi-0.dtd"
   xmlns="http://www.w3.org/2000/svg"
   xmlns:svg="http://www.w3.org/2000/svg"
   xmlns:rdf="http://www.w3.org/1999/02/22-rdf-syntax-ns#"
   xmlns:cc="http://creativecommons.org/ns#"
   xmlns:dc="http://purl.org/dc/elements/1.1/">
  <sodipodi:namedview
     id="namedview1029"
     pagecolor="#ffffff"
     bordercolor="#666666"
     borderopacity="1.0"
     inkscape:pageshadow="2"
     inkscape:pageopacity="0.0"
     inkscape:pagecheckerboard="0"
     showgrid="false"
     inkscape:zoom="0.67537943"
     inkscape:cx="481.95131"
     inkscape:cy="105.86642"
     inkscape:window-width="1920"
     inkscape:window-height="1009"
     inkscape:window-x="-8"
     inkscape:window-y="-8"
     inkscape:window-maximized="1"
     inkscape:current-layer="layer1"
     inkscape:snap-to-guides="true"
     inkscape:snap-others="true"
     inkscape:object-nodes="true"
     inkscape:snap-nodes="true"
     inkscape:snap-global="false"
     inkscape:snap-bbox="true"
     inkscape:bbox-nodes="false"
     inkscape:snap-smooth-nodes="false"
     showguides="false" />
  <title
     id="title593">Blank map of the United States, territories not included</title>
  <defs
     id="defs597">
    <style
       type="text/css"
       id="style595">
.state {fill:#D0D0D0}                        /* default color for all states not specified below */
.borders {stroke:#FFFFFF; stroke-width:1}    /* color and width of borders between states */
.dccircle {display:yes}                      /* set display to yes to show the circle for the District of Columbia, or none to hide it */
.separator1 {stroke:#B0B0B0; stroke-width:2} /* color and width of lines around Alaska and Hawaii */

/* Individual states can be colored as follows:
.ks,.mt,.pa {fill:#0000FF}
.ca,.de {fill:#FF0000}
In this example, Kansas, Montana and Pennsylvania are colored blue, and California and Delaware are colored red.
Place this code in the empty space below. */



</style>
  </defs>
  <g
     class="state"
     id="g803">
    <path
       class="al"
       d="m 643,467.4 .4,-7.3 -.9,-1.2 -1.7,-.7 -2.5,-2.8 .5,-2.9 48.8,-5.1 -.7,-2.2 -1.5,-1.5 -.5,-1.4 .6,-6.3 -2.4,-5.7 .5,-2.6 .3,-3.7 2.2,-3.8 -.2,-1.1 -1.7,-1 v -3.2 l -1.8,-1.9 -2.9,-6.1 -12.9,-45.8 -45.7,4 1.3,2 -1.3,67 4.4,33.2 .9,-.5 1.3,.1 .6,.4 .8,-.1 2,-3.8 v -2.3 l 1.1,-1.1 1.4,.5 3.4,6.4 v .9 l -3.3,2.2 3.5,-.4 4.9,-1.6 z"
       id="path601">
      <title
         id="title599">Alabama</title>
    </path>
    <!-- The scale of Alaska is 42% that of the contiguous United States, so its area is reduced to about 17.6%. The Islands of Four Mountains, Andreanof Islands, Rat Islands and Near Islands are not shown. -->
    <path
       class="ak"
       d="m 15.8,572 h 2.4 l .7,.7 -1,1.2 -1.9,.2 -2.5,1.3 -3.7,-.1 2.2,-.9 .3,-1.1 2.5,-.3 z m 8.3,-1.7 1.3,.5 h .9 l .5,1.2 .3,-.6 .9,.2 1.1,1.5 0,.5 -4.2,1.9 -2.4,-.1 -1,-.5 -1.1,.7 -2,0 -1.1,-1.4 4.7,-.5 z m 5.4,-.1 1,.1 .7,.7 v 1 l -1.3,.1 -.9,-1.1 z m 2.5,.3 1.3,-.1 -.1,1 -1.1,.6 z m .3,2.2 3.4,-.1 .2,1.1 -1.3,.1 -.3,-.5 -.8,.6 -.4,-.6 -.9,-.2 z m 166.3,7.6 2.1,.1 -1,1.9 -1.1,-.1 -.4,-.8 .5,-1.3 m -1.1,-2.9 .6,-1.3 -.2,-2.3 2.4,-.5 4.5,4.4 1.3,3.4 1.9,1.6 .3,5.1 -1.4,0 -1.3,-2.3 -3.1,-2.4 h -.6 l 1.1,2.8 1.7,.2 .2,2.1 -.9,.1 -4.1,-4.4 -.1,-.9 1.9,-1 0,-1 -.5,-.8 -1.6,-.6 -1.7,-1.3 1.4,.1 .5,-.4 -.6,-.9 -.6,.5 z m -3.6,-9.1 1.3,.1 2.4,2.5 -.2,.8 -.8,-.1 -.1,1.8 .5,.5 0,1.5 -.8,.3 -.4,1.2 -.8,-.4 -.4,-2.2 1.1,-1.4 -2.1,-2.2 .1,-1.2 z m 1.5,-1.5 1.9,.2 2.5,.1 3.4,3.2 -.2,.5 -1.1,.6 -1.1,-.2 -.1,-.7 -1.2,-1.6 -.3,.7 1,1.3 -.2,1.2 -.8,-.1 -1.3,.2 -.1,-1.7 -2.6,-2.8 z m -12.7,-8.9 .9,-.4 h 1.6 l .7,-.5 4.1,2.2 .1,1.5 -.5,.5 h -.8 l -1.4,-.7 1.1,1.3 1.8,0 .5,2 -.9,0 -2.2,-1.5 -1.1,-.2 .6,1.3 .1,.9 .8,-.6 1.7,1.2 1.3,-.1 -.2,.8 1.9,4.3 0,3.4 .4,2.1 -.8,.3 -1.2,-2 -.5,-1.5 -1.6,-1.6 -.2,-2.7 -.6,-1.7 h -.7 l .3,1.1 0,.5 -1.4,1 .1,-3.3 -1.6,-1.6 -1.3,-2.3 -1.2,-1.2 z m 7.2,-2.3 1.1,1.8 2.4,-.1 1,2.1 -.6,.6 2,3.2 v 1.3 l -1.2,.8 v .7 l -2,1.9 -.5,-1.4 -.1,-1.3 .6,-.7 v -1.1 l -1.5,-1.9 -.5,-3.7 -.9,-1.5 z m -56.7,-18.3 -4,4.1 v 1.6 l 2.1,-.8 .8,-1.9 2.2,-2.4 z m -31.6,16.6 0,.6 1.8,1.2 .2,-1.4 .6,.9 3.5,.1 .7,-.6 .2,-1.8 -.5,-.7 -1.4,0 0,-.8 .4,-.6 v -.4 l -1.5,-.3 -3.3,3.6 z m -8.1,6.2 1.5,5.8 h 2.1 l 2.4,-2.5 .3,1.2 6.3,-4 .7,-1 -1,-1.1 v -.7 l .5,-1.3 -.9,-.1 -2,1 0,-1.2 -2.7,-.6 -2.4,.3 -.2,3.4 -.8,-2 -1.5,-.1 -1,.6 z m -2.2,8.2 .1,-.7 2.1,-1.3 .6,.3 1.3,.2 1.3,1.2 -2.2,-.2 -.4,-.6 -1,.6 z m -5.2,3.3 -1.1,.8 1.5,1.4 .8,-.7 -.1,-1.3 z m -6.3,-7.9 1.4,.1 .4,.6 -1.8,.1 z m -13.9,11.9 v .5 l .7,.1 -.1,-.6 z m -.4,-3.2 -1,1 v .5 l .7,1.1 1,-1 -.7,-.1 z m -2,-.8 -.3,1 -1.3,.1 -.4,.2 0,1.3 -.5,.9 .6,0 .7,-.9 .8,-.1 .9,-1 .2,-1.3 z m -4.4,-2 -.2,1.8 1.4,.8 1.2,-.6 0,-1 1.7,-.3 -.1,-.6 -.9,-.2 -.7,.6 -.9,-.5 z m -4.9,-.1 1,.7 -.3,1.2 -1.4,-1.1 z m -4.2,1.3 1.4,.1 -.7,.8 z m -3.5,3 1.8,1.1 -1.7,.1 z m -25.4,-31.2 1.2,.6 -.8,.6 z m -.7,-6.3 .4,1.2 .8,-1.2 z m 24.3,-19.3 1.5,-.1 .9,.4 1.1,-.5 1.3,-.1 1.6,.8 .8,1.9 -.1,.9 -1.2,2 -2.4,-.2 -2.1,-1.8 -1,-.4 -1.1,-2 z m -21.1,-14.4 .1,1.9 2,2 v .5 l -.8,-.2 -1.7,-.8 -.3,-1.1 -.3,-1.6 z m 18.3,-23.3 v 1.2 l 1.9,1.8 h 2.3 l .6,1.1 v 1.6 l 2.1,1.9 1.8,1.2 -.1,.7 -.7,1.1 -1.4,-1.2 -2.1,.1 -.8,-.8 -.9,-2.1 -1.5,-2.2 -2.6,-.1 -1,-.7 1,-2.1 z m 16.8,-4.5 1,0 .1,1.1 h -1 z m 16.2,19.7 .9,.1 0,1.2 -1.7,-.5 z m 127.8,77.7 -1.2,.4 -.1,1.1 h 1.2 z m -157.6,-4.5 -1.3,-.4 -4.1,.6 -2.8,1.4 -.1,1.9 1.9,.7 1.5,-.9 1.7,-.1 4.7,1.4 .1,-1.3 -1.6,-1.1 z m 2.1,2.3 -.4,-1.4 1.2,.2 .1,1.4 1.8,0 .4,-2.5 .3,2.4 2.5,-.1 3.2,-3.3 .8,.1 -.7,1.3 1.4,.9 4.2,-.2 2.6,-1.2 1.4,-.1 .3,1.5 .6,-.5 .4,-1.4 5.9,.2 1.9,-1.6 -1.3,-1.1 .6,-1.2 2.6,.2 -.2,-1.2 2.5,.2 .7,-1.1 1.1,.2 4.6,-1.9 .2,-1.7 5.6,-2.4 2,-1.9 1.2,-.6 1.3,.8 2.3,-.9 1.1,-1.9 .5,-1.3 1.7,-.9 1.5,-.7 .4,-1.4 -1.1,-1.7 -2.2,-.2 -.2,-1.3 .8,-1.6 1.4,-.2 1.3,-1.5 1.9,-.1 3.4,-3.2 .4,-1.4 1.5,-2.3 3.8,-4.1 2.5,-.9 1.9,-.9 2.1,.8 1.4,2.6 -1.5,0 -1.4,-1.5 -3,2 -1.7,.1 -.2,3.1 -3.1,4.9 .6,2 2.3,0 -.6,1 -1.4,.1 -2.4,1.8 0,.9 1.9,1 3.4,-.6 1.4,-1.7 1.4,.1 3,-1.7 .5,-2.3 1.6,-.1 6.3,.8 1,-1.1 1,-4.5 -1.6,1.1 .6,-2.2 -1.6,-1.4 .8,-1.5 .1,1.5 3.4,0 .7,-1 1.6,-.1 -.3,1.7 1.9,.1 -1.9,1.3 4.1,1.1 -3.5,.4 -1.3,1.2 .9,1.4 4.6,-1.7 2.3,1.7 .7,-.9 .6,1.4 4,2.3 h 2.9 l 3.9,-.5 4.3,1.1 2,1.9 4.5,.4 1.8,-1.5 .8,2.4 -1.8,.7 1.2,1.2 7.4,3.8 1.4,2.5 5.4,4.1 3.3,-2 -.6,-2.2 -3.5,-2 3.1,1.2 .5,-.7 .9,1.3 0,2.7 2.1,-.6 2.1,1.8 -2.5,-9.8 1.2,1.3 1.4,6 2.2,2.5 2.4,-.4 1.8,3.5 h .9 l .6,5.6 3.4,.5 1.6,2.2 1.8,1.1 .4,2.8 -1.8,2.6 2.9,1.6 1.2,-2.4 -.2,3.1 -.8,.9 1.4,1.7 .7,-2.4 -.2,-1.2 .8,.2 .6,2.3 -1,1.4 .6,2.6 .5,.4 .3,-1.6 .7,.6 -.3,2 1.2,.2 -.4,.9 1.7,-.1 0,-1 h -1 l .1,-1.7 -.8,-.6 1.7,-.3 .5,-.8 0,-1.6 .5,1.3 -.6,1.8 1.2,3.9 1.8,.1 2.2,-4.2 .1,-1.9 -1.3,-4 -.1,-1.2 .5,-1.2 -.7,-.7 -1.7,.1 -2.5,-2 -1.7,0 -2,-1.4 -1.5,0 -.5,-1.6 -1.4,-.3 -.2,-1.5 -1,-.5 .1,-1.7 -5.1,-7.4 -1.8,-1.5 v -1.2 l -4.3,-3.5 -.7,-1.1 -1.6,-2 -1.9,-.6 0,-2.2 -1.2,-1.3 -1.7,-.7 -2.1,1.3 -1.6,2.1 -.4,2.4 -1.5,.1 -2.5,2.7 -.8,-.3 v -2.5 l -2.4,-2.2 -2.3,-2 -.5,-2 -2.5,-1.3 .2,-2.2 -2.8,-.1 -.7,1.1 -1.2,0 -.7,-.7 -1.2,.8 -1.8,-1.2 0,-85.8 -6.9,-4.1 -1.8,-.5 -2.2,1.1 -2.2,.1 -2.3,-1.6 -4.3,-.6 -5.8,-3.6 -5.7,-.4 -2,.5 -.2,-1.8 -1.8,-.7 1.1,-1 -.2,-.9 -3.2,-1.1 h -2.4 l -.4,.4 -.9,-.6 .1,-2.6 -.8,-.9 -2.5,2.9 -.8,-.1 v -.8 l 1.7,-.8 v -.8 l -1.9,-2.4 -1.1,-.1 -4.5,3.1 h -3.9 l .4,-.9 -1.8,-.1 -5.2,3.4 -1.8,0 -.6,-.8 -2.7,1.5 -3.6,3.7 -2.8,2.7 -1.5,1.2  -2.6,.1 -2.2,-.4 -2.3,-1.3 v 0 l -2.8,3.9 -.1,2.4 2.6,2.4 2.1,4.5 .2,5.3 2.9,2 3.4,.4 .7,.8 -1.5,2.3 .7,2.7 -1.7,-2.6 v -2.4 l -1.5,-.3 .1,1.2 .7,2.1 2.9,3.7 h -1.4 l -2.2,1.1 -6.2,-2.5 -.1,-2 1.4,-1.3 0,-1.4 -2.1,-.5 -2.3,.2 -4.8,.2 1.5,2.3 -1.9,-1.8 -8.4,1.2 -.8,1.5 4.9,4.7 -.8,1.4 -.3,2 -.7,.8 -.1,1.9 4.4,3.6 4.1,.2 4.6,1.9 h 2 l .8,-.6 3.8,.1 .1,-.8 1.2,1.1 .1,2 -2.5,-.1 .1,3.3 .5,3.2 -2.9,2.7 -1.9,-.1 -2,-.8 -1,.1 -3.1,2.1 -1.7,.2 -1.4,-2.8 -3.1,0 -2.2,2 -.5,1.8 -3.3,1.8 -5.3,4.3 -.3,3.1 .7,2.2 1,1.2 1,-.4 .9,1 -.8,.6 -1.5,.9 1.1,1.5 -2.6,1.1 .8,2.2 1.7,2.3 .8,4.1 4,1.5 2.6,-.8 1.7,-1.1 .5,2.1 .3,4.4 -1.9,1.4 0,4.4 -.6,.9 h -1.7 l 1.7,1.2 2.1,-.1 .4,-1 4.6,-.6 2,2.6 1.3,-.7 1.3,5.1 1,.5 1,-.7 .1,-2.4 .9,-1 .7,1.1 .2,1.6 1.6,.4 4.7,-1.2 .2,1.2 -2,1.1 -1.6,1.7 -2.8,7 -4.3,2 -1.4,1.5 -.3,1.4 -1,-.6 -9.3,3.3 -1.8,4.1 -1.3,-.4 .5,-1.1 -1.5,-1.4 -3.5,-.2 -5.3,3.2 -2.2,1.3 -2.3,0 -.5,2.4 z"
       id="path605">
      <title
         id="title603">Alaska</title>
    </path>
    <path
       class="az"
       d="m 139.6,387.6 3,-2.2 .8,-2.4 -1,-1.6 -1.8,-.2 -1.1,-1.6 1.1,-6.9 1.6,-.3 2.4,-3.2 1.6,-7 2.4,-3.6 4.8,-1.7 1.3,-1.3 -.4,-1.9 -2.3,-2.5 -1.2,-5.8 -1.4,-1.8 -1.3,-3.4 .9,-2.1 1.4,-3 .5,-2.9 -.5,-4.9 1,-13.6 3.5,-.6 3.7,1.4 1.2,2.7 h 2 l 2.4,-2.9 3.4,-17.5 46.2,8.2 40,6 -17.4,124.1 -37.3,-5.4 -64.2,-37.5 .5,-2.9 2,-1.8 z"
       id="path609">
      <title
         id="title607">Arizona</title>
    </path>
    <path
       class="ar"
       d="m 584.2,367 .9,-2.2 1.2,.5 .7,-1 -.8,-.7 .3,-1.5 -1.1,-.9 .6,-1 -.1,-1.5 -1.1,-.1 .8,-.8 1.3,.8 .3,-1.4 -.4,-1.1 .1,-.7 2,.6 -.4,-1.5 1.6,-1.3 -.5,-.9 -1.1,.1 -.6,-.9 .9,-.9 1.6,-.2 .5,-.8 1.4,-.2 -.1,-.8 -.9,-.9 v -.5 h 1.5 l .4,-.7 -1.4,-1 -.1,-.6 -11.2,.8 2.8,-5.1 1.7,-1.5 v -2.2 l -1.6,-2.5 -39.8,2 -39.1,.7 4.1,24.4 -.7,39 2.6,2.3 2.8,-1.3 3.2,.8 .2,11.9 52.3,-1.3 1.2,-1.5 .5,-3 -1.5,-2.3 -.5,-2.2 .9,-.7 v -.8 l -1.7,-1.1 -.1,-.7 1.6,-.9 -1.2,-1.1 1.7,-7.1 3.4,-1.6 v -.8 l -1.1,-1.4 2.9,-5.4 h 1.9 l 1.5,-1.2 -.3,-5.2 3.1,-4.5 1.8,-.6 -.5,-3.1 z"
       id="path613">
      <title
         id="title611">Arkansas</title>
    </path>
    <path
       class="ca"
       d="m 69.4,365.6 3.4,5.2 -1.4,.1 -1.8,-1.9 z m 1.9,-9.8 1.8,4.1 2.6,1 .7,-.6 -1.3,-2.5 -2.6,-2.4 z m -19.9,-19 v 2.4 l 2,1.2 4.4,-.2 1,-1 -3.1,-.2 z m -5.9,.1 3.3,.5 1.4,2.2 h -3.8 z m 47.9,45.5 -1,-3 .2,-3 -.4,-7.9 -1.8,-4.8 -1.2,-1.4 -.6,-1.5 -7,-8.6 -3.6,.1 -2,-1.9 1.1,-1.8 -.7,-3.7 -2.2,-1.2 -3.9,-.6 -2.8,-1.3 -1.5,-1.9 -4.5,-6.6 -2.7,-2.2 -3.7,-.5 -3.1,-2.3 -4.7,-1.5 -2.8,-.3 -2.5,-2.5 .2,-2.8 .8,-4.8 1.8,-5.1 -1.4,-1.6 -4,-9.4 -2.7,-3.7 -.4,-3 -1.6,-2.3 .2,-2.5 -2,-5 -2.9,-2.7 .6,-7.1 2.4,-.8 1.8,-3.1 -.4,-3.2 -1,-.9 h -2.5 l -2.5,-3.3 -1.5,-3.5 v -7.5 l 1.2,-4.2 .2,-2.1 2.5,.2 -.1,1.6 -.8,.7 v 2.5 l 3.7,3.2 v -4.7 l -1.4,-3.4 .5,-1.1 -1,-1.7 2.8,-1.5 -1.9,-3 -1.4,.5 -1.5,3.8 .5,1.3 -.8,1 -.9,-.1 -5.4,-6.1 .7,-5.6 -1.1,-3.9 -6.5,-12.8 .8,-10.7 2.3,-3.6 .2,-6.4 -5.5,-11.1 .3,-5.2 6.9,-7.5 1.7,-2.4 -.1,-1.4 4,-9.2 .1,-8.4 .9,-2.5 66.1,18.6 -16.4,63.1 1.1,3.5 70.4,105 -.9,2.1 1.3,3.4 1.4,1.8 1.2,5.8 2.3,2.5 .4,1.9 -1.3,1.3 -4.8,1.7 -2.4,3.6 -1.6,7 -2.4,3.2 -1.6,.3 -1.1,6.9 1.1,1.6 1.8,.2 1,1.6 -.8,2.4 -3,2.2 -2.2,-.1 z"
       id="path617">
      <title
         id="title615">California</title>
    </path>
    <path
       class="co"
       d="m 374.6,323.3 -16.5,-1 -51.7,-4.8 -52.6,-6.5 11.5,-88.3 44.9,5.7 37.5,3.4 33.1,2.4 -1.4,22.1 z"
       id="path621">
      <title
         id="title619">Colorado</title>
    </path>
    <path
       class="ct"
       d="m 873.5,178.9 .4,-1.1 -3.2,-12.3 -.1,-.3 -14.9,3.4 v .7 l -.9,.3 -.5,-.7 -10.5,2.4 2.8,16.3 1.8,1.5 -3.5,3.4 1.7,2.2 5.4,-4.5 1.7,-1.3 h .8 l 2.4,-3.1 1.4,.1 2.9,-1.1 h 2.1 l 5.3,-2.7 2.8,-.9 1,-1 1.5,.5 z"
       id="path625">
      <title
         id="title623">Connecticut</title>
    </path>
    <path
       class="de"
       d="m 822.2,226.6 -1.6,.3 -1.5,1.1 -1.2,2.1 7.6,27.1 10.9,-2.3 -2.2,-7.6 -1.1,.5 -3.3,-2.6 -.5,-1.7 -1.8,-1 -.2,-3.7 -2.1,-2.2 -1.1,-.8 -1.2,-1.1 -.4,-3.2 .3,-2.1 1,-2.2 z"
       id="path629">
      <title
         id="title627">Delaware</title>
    </path>
    <path
       class="fl"
       d="m 751.7,445.1 -4,-.7 -1.7,-.9 -2.2,1.4 v 2.5 l 1.4,2.1 -.5,4.3 -2.1,.6 -1,-1.1 -.6,-3.2 -50.1,3.3 -3.3,-6 -48.8,5.1 -.5,2.9 2.5,2.8 1.7,.7 .9,1.2 -.4,7.3 -1.1,.6 .5,.4 1,-.3 .7,-.8 10.5,-2.7 9.2,-.5 8.1,1.9 8.5,5 2.4,.8 2.2,2 -.1,2.7 h 2.4 l 1.9,-1 2.5,.1 2,-.8 2.9,-2 3.1,-2.9 1.1,-.4 .6,.5 h 1.4 l .5,-.8 -.5,-1.2 -.6,-.6 .2,-.8 2,-1.1 5,-.4 .8,1 1,.1 2.3,1 3,1.8 1.2,1.7 1.1,1.2 2.8,1.4 v 2.4 l 2.8,1.9 1,.1 1.6,1.4 .7,1.6 1,.2 .8,2.1 .7,.6 1,-1.1 2.9,.1 .5,1.4 1.1,.9 v 1.3 l 2.9,2.2 .2,9.6 -1.8,5.8 1,1.2 -.2,3.4 -.8,1.4 .7,1.2 2.3,2.3 .3,1.5 .8,1 -.4,-1.9 1.3,-.6 .8,-3.6 -3,-1.2 .1,-.6 2.6,-.4 .9,2.6 1.1,.6 .1,-2 1.1,.3 .6,.8 -.1,.7 -2.9,4.2 -.2,1.1 -1.7,1.9 v 1.1 l 3.7,3.8 5.3,7.9 1.8,2.1 v 1.8 l 2.8,4.6 2.3,.6 .7,-1.2 -2.1,.3 -3,-4.5 .2,-1.4 1.5,-.8 v -1.5 l -.6,-1.3 .9,-.9 .4,.9 .7,.5 v 4 l -1.2,-.6 -.8,.9 1.4,1.6 1,2.6 1.2,-.6 2.3,1.2 2.1,2.2 1.6,5.1 3.1,4.8 .8,-1.3 2.8,-.5 3.2,1.3 .3,1.7 3.3,3.8 .1,1.1 2.2,2.7 -.7,.5 v 2.7 l 2.7,1.4 h 1.5 l 2.7,-1.8 1.5,.3 1.1,.4 2.3,-1.7 .2,-.7 1.2,.3 2.4,-1.7 1.3,-2.3 -.7,-3.2 -.2,-1.3 1.1,-4 .6,-.2 .6,1.6 .8,-1.8 -.8,-7.2 -.4,-10.5 -1,-6.8 -.7,-1.7 -6.6,-11.1 -5.2,-9.1 -2.2,-3.3 -1.3,-3.6 -.2,-3.4 .9,-.3 v -.9 l -1.1,-2.2 -4,-4 -7.6,-9.7 -5.7,-10.4 -4.3,-10.7 -.6,-3.7 -1.2,-1 -.5,-3.8 z m 9.2,134.5 1.7,-.1 -.7,-1 z m 7.3,-1.1 v -.7 l 1.6,-.2 3.7,-3.3 1.5,-.6 2.4,-.9 .3,1.3 1.7,.8 -2.6,1.2 h -2.4 l -3.9,2.5 z m 17.2,-7.6 -3,1.4 -1,1.3 1.1,.1 z m 3.8,-2.9 -1.1,.3 -1.4,2 1.1,-.2 1.5,-1.6 z m 8.3,-15.7 -1.7,5.6 -.8,1 -1,2.6 -1.2,1.6 -.7,1.7 -1.9,2.2 v .9 l 2.7,-2.8 2.4,-3.5 .6,-2 2.1,-4.9 z"
       id="path633">
      <title
         id="title631">Florida</title>
    </path>
    <path
       class="ga"
       d="m 761.8,414.1 v 1.4 l -4.2,6.2 -1.2,.2 1.5,.5 v 2 l -.9,1.1 -.6,6 -2.3,6.2 .5,2 .7,5.1 -3.6,.3 -4,-.7 -1.7,-.9 -2.2,1.4 v 2.5 l 1.4,2.1 -.5,4.3 -2.1,.6 -1,-1.1 -.6,-3.2 -50.1,3.3 -3.3,-6 -.7,-2.2 -1.5,-1.5 -.5,-1.4 .6,-6.3 -2.4,-5.7 .5,-2.6 .3,-3.7 2.2,-3.8 -.2,-1.1 -1.7,-1 v -3.2 l -1.8,-1.9 -2.9,-6.1 -12.9,-45.8 22.9,-2.9 21.4,-3 -.1,1.9 -1.9,1 -1.4,3.2 .2,1.3 6.1,3.8 2.6,-.3 3.1,4 .4,1.7 4.2,5.1 2.6,1.7 1.4,.2 2.2,1.6 1.1,2.2 2,1.6 1.8,.5 2.7,2.7 .1,1.4 2.6,2.8 5,2.3 3.6,6.7 .3,2.7 3.9,2.1 2.5,4.8 .8,3.1 4.2,.4 z"
       id="path637">
      <title
         id="title635">Georgia</title>
    </path>
    <!-- Hawaii is shown in the same scale as the contiguous United States. The Northwestern Hawaiian Islands are not shown. -->
    <path
       class="hi"
       d="m 317,553.7 -.2,3.2 1.7,1.9 .1,1.2 -4.8,4.5 -.1,1.2 1.9,3.2 1.7,4.2 v 2.6 l -.5,1.2 .1,3.4 4.1,2.1 1.1,1.1 1.2,-1.1 2.1,-3.6 4.5,-2.9 3.3,-.5 2.5,-1 1.7,-1.2 3.2,-3.5 -2.8,-1.1 -1.4,-1.4 .1,-1.7 -.5,-.6 h -2 l .2,-2.5 -.7,-1.2 -2.6,-2.3 -4.5,-1.9 -2.8,-.2 -3.3,-2.7 -1.2,-.6 z m -15.3,-17 -1.1,1.5 -.1,1.7 2.7,2.4 1.9,.5 .6,1 .4,3 3.6,.2 5.3,-2.6 -.1,-2.5 -1.4,-.5 -3.5,-2.6 -1.8,-.3 -2.9,1.3 -1.5,-2.7 z m -1.5,11.5 .9,-1.4 2.5,-.3 .6,1.8 z m -7,-8.7 1.7,4 3.1,-.6 .3,-2 -1.4,-1.5 z m -4.1,-6.7 -1.1,2.4 h 5 l 4.8,1.6 2.5,-1.6 .2,-1.5 -4.8,.2 z m -16,-10.6 -1.9,2.1 -2.9,.6 .8,2.2 2.2,2.8 .1,1 2.1,-.3 2.3,.1 1.7,1.2 3.5,-.8 v -.7 l -1,-.8 -.5,-2.1 -.8,-.3 -.5,1 -1.2,-1.3 .2,-1.4 -1.8,-3.3 -1.1,-.7 z m -31.8,-12.4 -4.2,2.9 .2,2.3 2.4,1.2 1.9,1.3 2.7,.4 2.6,-2.2 -.2,-1.9 .8,-1.7 v -1.4 l -1,-.9 z m -10.8,4.8 -.3,1.2 -1.9,.9 -.6,1.8 1,.8 1.1,-1.5 1.9,-.6 .4,-2.6 z"
       id="path641">
      <title
         id="title639">Hawaii</title>
    </path>
    <path
       class="id"
       d="m 165.3,183.1 -24.4,-5.4 8.5,-37.3 2.9,-5.8 .4,-2.1 .8,-.9 -.9,-2 -2.9,-1.2 .2,-4.2 4,-5.8 2.5,-.8 1.6,-2.3 -.1,-1.6 1.8,-1.6 3.2,-5.5 4.2,-4.8 -.5,-3.2 -3.5,-3.1 -1.6,-3.6 1.1,-4.3 -.7,-4 12.7,-56.1 14.2,3 -4.8,22 3.7,7.4 -1.6,4.8 3.6,4.8 1.9,.7 3.9,8.3 v 2.1 l 2.3,3 h .9 l 1.4,2.1 h 3.2 v 1.6 l -7.1,17 -.5,4.1 1.4,.5 1.6,2.6 2.8,-1.4 3.6,-2.4 1.9,1.9 .5,2.5 -.5,3.2 2.5,9.7 2.6,3.5 2.3,1.4 .4,3 v 4.1 l 2.3,2.3 1.6,-2.3 6.9,1.6 2.1,-1.2 9,1.7 2.8,-3.3 1.8,-.6 1.2,1.8 1.6,4.1 .9,.1 -8.5,54.8 -47.9,-8.2 z"
       id="path645">
      <title
         id="title643">Idaho</title>
    </path>
    <path
       class="il"
       d="m 623.5,265.9 -1,5.2 v 2 l 2.4,3.5 v .7 l -.3,.9 .9,1.9 -.3,2.4 -1.6,1.8 -1.3,4.2 -3.8,5.3 -.1,7 h -1 l .9,1.9 v .9 l -2.2,2.7 .1,1.1 1.5,2.2 -.1,.9 -3.7,.6 -.6,1.2 -1.2,-.6 -1,.5 -.4,3.3 1.7,1.8 -.4,2.4 -1.5,.3 -6.9,-3 -4,3.7 .3,1.8 h -2.8 l -1.4,-1.5 -1.8,-3.8 v -1.9 l .8,-.6 .1,-1.3 -1.7,-1.9 -.9,-2.5 -2.7,-4.1 -4.8,-1.3 -7.4,-7.1 -.4,-2.4 2.8,-7.6 -.4,-1.9 1.2,-1.1 v -1.3 l -2.8,-1.5 -3,-.7 -3.4,1.2 -1.3,-2.3 .6,-1.9 -.7,-2.4 -8.6,-8.4 -2.2,-1.5 -2.5,-5.9 -1.2,-5.4 1.4,-3.7 .7,-.7 .1,-2.3 -.7,-.9 1,-1.5 1.8,-.6 .9,-.3 1,-1.2 v -2.4 l 1.7,-2.4 .5,-.5 .1,-3.5 -.9,-1.4 -1,-.3 -1.1,-1.6 1,-4 3,-.8 h 2.4 l 4.2,-1.8 1.7,-2.2 .1,-2.4 1.1,-1.3 1.3,-3.2 -.1,-2.6 -2.8,-3.5 h -1.2 l -.9,-1.1 .2,-1.6 -1.7,-1.7 -2.5,-1.3 .5,-.6 45.9,-2.8 .1,4.6 3.4,4.6 1.2,4.1 1.6,3.2 z"
       id="path649">
      <title
         id="title647">Illinois</title>
    </path>
    <path
       class="in"
       d="m 629.2,214.8 -5.1,2.3 -4.7,-1.4 4.1,50.2 -1,5.2 v 2 l 2.4,3.5 v .7 l -.3,.9 .9,1.9 -.3,2.4 -1.6,1.8 -1.3,4.2 -3.8,5.3 -.1,7 h -1 l .9,1.9 1.1,.8 .6,-1 -.7,-1.7 4.6,-.5 .2,1.2 1.1,.2 .4,-.9 -.6,-1.3 .3,-.8 1.3,.8 1.7,-.4 1.7,.6 3.4,2.1 1.8,-2.8 3.5,-2.2 3,3.3 1.6,-2.1 .3,-2.7 3.8,-2.3 .2,1.3 1.9,1.2 3,-.2 1.2,-.7 .1,-3.4 2.5,-3.7 4.6,-4.4 -.1,-1.7 1.2,-3.8 2.2,1 6.7,-4.5 -.4,-1.7 -1.5,-2.1 1,-1.9 -6.6,-57.2 -.1,-1.4 -32.4,3.4 z"
       id="path653">
      <title
         id="title651">Indiana</title>
    </path>
    <path
       class="ia"
       d="m 556.9,183 2.1,1.6 .6,1.1 -1.6,3.3 -.1,2.5 2,5.5 2.7,1.5 3.3,.7 1.3,2.8 -.5,.6 2.5,1.3 1.7,1.7 -.2,1.6 .9,1.1 h 1.2 l 2.8,3.5 .1,2.6 -1.3,3.2 -1.1,1.3 -.1,2.4 -1.7,2.2 -4.2,1.8 h -2.4 l -3,.8 -1,4 1.1,1.6 1,.3 .9,1.4 -.1,3.5 -.5,.5 -1.7,2.4 v 2.4 l -1,1.2 -.9,.3 -1.8,.6 -1,1.5 .7,.9 -.1,2.3 -.7,.7 -1.5,-.8 -1.1,-1.1 -.6,-1.6 -1.7,-1.3 -14.3,.8 -27.2,1.2 -25.9,-.1 -1.8,-4.4 .7,-2.2 -.8,-3.3 .2,-2.9 -1.3,-.7 -.4,-6.1 -2.8,-5 -.2,-3.7 -2.2,-4.3 -1.3,-3.7 v -1.4 l -.6,-1.7 v -2.3 l -.5,-.9 -.7,-1.7 -.3,-1.3 -1.3,-1.2 1,-4.3 1.7,-5.1 -.7,-2 -1.3,-.4 -.4,-1.6 1,-.5 .1,-1.1 -1.3,-1.5 .1,-1.6 2.2,.1 h 28.2 l 36.3,-.9 18.6,-.7 z"
       id="path657">
      <title
         id="title655">Iowa</title>
    </path>
    <path
       class="ks"
       d="m 459.1,259.5 -43.7,-1.2 -36,-2 -4.8,67 67.7,2.9 62,.1 -.5,-48.1 -3.2,-.7 -2.6,-4.7 -2.5,-2.5 .5,-2.3 2.7,-2.6 .1,-1.2 -1.5,-2.1 -.9,1 -2,-.6 -2.9,-3 z"
       id="path661">
      <title
         id="title659">Kansas</title>
    </path>
    <path
       class="ky"
       d="m 692.1,322.5 -20.5,1.4 -5.2,.8 -17.4,1 -2.6,.8 -22.6,2 -.7,-.6 h -3.7 l 1.2,3.2 -.6,.9 -23.3,1.5 1,-2.7 1.4,.9 .7,-.4 1.2,-4.1 -1,-1 1,-2 .2,-.9 -1.3,-.8 -.3,-1.8 4,-3.7 6.9,3 1.5,-.3 .4,-2.4 -1.7,-1.8 .4,-3.3 1,-.5 1.2,.6 .6,-1.2 3.7,-.6 .1,-.9 -1.5,-2.2 -.1,-1.1 2.2,-2.7 0,-.9 1.1,.8 .6,-1 -.7,-1.7 4.6,-.5 .2,1.2 1.1,.2 .4,-.9 -.6,-1.3 .3,-.8 1.3,.8 1.7,-.4 1.7,.6 3.4,2.1 1.8,-2.8 3.5,-2.2 3,3.3 1.6,-2.1 .3,-2.7 3.8,-2.3 .2,1.3 1.9,1.2 3,-.2 1.2,-.7 .1,-3.4 2.5,-3.7 4.6,-4.4 -.1,-1.7 1.2,-3.8 2.2,1 6.7,-4.5 -.4,-1.7 -1.5,-2.1 1,-1.9 1.3,.5 2.2,.1 1.9,-.8 2.9,1.2 2.2,3.4 v 1 l 4.1,.7 2.3,-.2 1.9,2.1 2.2,.2 v -1 l 1.9,-.8 3,.8 1.2,.8 1.3,-.7 h .9 l .6,-1.7 3.4,-1.8 .5,.8 .8,2.9 3.5,1.4 1.2,2.1 -.1,1.1 .6,1 -.6,3.6 1.9,1.6 .8,1.1 1,.6 -.1,.9 4.4,5.6 h 1.4 l 1.5,1.8 1.2,.3 1.4,-.1 -4.9,6.6 -2.9,1 -3,3 -.4,2.2 -2.1,1.3 -.1,1.7 -1.4,1.4 -1.8,.5 -.5,1.9 -1,.4 -6.9,4.2 z m -98,11.3 -.7,-.7 .2,-1 h 1.1 l .7,.7 -.3,1 z"
       id="path665">
      <title
         id="title663">Kentucky</title>
    </path>
    <path
       class="la"
       d="m 602.5,472.8 -1.2,-1.8 .3,-1.3 -4.8,-6.8 .9,-4.6 1,-1.4 .1,-1.4 -36,2 1.7,-11.9 2.4,-4.8 6,-8.4 -1.8,-2.5 h 2 v -3.3 l -2.4,-2.5 .5,-1.7 -1.2,-1 -1.6,-7.1 .6,-1.4 -52.3,1.3 .5,19.9 .7,3.4 2.6,2.8 .7,5.4 3.8,4.6 .8,4.3 h 1 l -.1,7.3 -3.3,6.4 1.3,2.3 -1.3,1.5 .7,3 -.1,4.3 -2.2,3.5 -.1,.8 -1.7,1.2 1,1.8 1.2,1.1 1.6,-1.3 5.3,-.9 6.1,-.1 9.6,3.8 8,1 1.5,-1.4 1.8,-.2 4.8,2.2 1.6,-.4 1.1,-1.5 -4.2,-1.8 -2.2,1 -1.1,-.2 -1.4,-2 3.3,-2.2 1.6,-.1 v 1.7 l 1.5,-.1 3.4,-.3 .4,2.3 1.1,.4 .6,1.9 4.8,1 1.7,1.6 v .7 h -1.2 l -1.5,1.7 1.7,1.2 5.4,1 2.7,2.8 4.4,-1 -3.7,.2 -.1,-.6 2.8,-.7 .2,-1.8 1.2,-.3 v -1.4 l 1.1,.1 v 1.6 l 2.5,.1 .8,-1.9 .9,.3 .2,2.5 1.2,.2 -1.8,2 2.6,-.9 2,-1.1 2.9,-3.3 h -.7 l -1.3,1.2 -.4,-.1 -.5,-.8 .9,-1.2 v -2.3 l 1.1,-.8 .7,.7 1,-.8 1,-.1 .6,1.3 -.6,1.9 h 2.4 l 5.1,1.7 .5,1.3 1.6,1.4 2.8,.1 1.3,.7 1.8,-1 .9,-1.7 v -1.7 h -1.4 l -1.2,-1.4 -1.1,-1.1 -3.2,-.9 -2.6,.2 -4.2,-2.4 v -2.3 l 1.3,-1 2.4,.6 -3.1,-1.6 .2,-.8 h 3.6 l 2.6,-3.5 -2.6,-1.8 .8,-1.5 -1.2,-.8 h -.8 l -2,2.1 v 2.1 l -.6,.7 -1.1,-.1 -1.6,-1.4 h -1.3 v -1.5 l .6,-.7 .8,.7 1.7,-1.6 .7,-1.6 .8,-.3 z m -10.3,-2.7 1.9,1 .8,1.1 2.5,.1 1.5,.8 .2,1.4 -.4,.6 -.9,-1.5 -1.4,1.2 -.9,1.4 -2.8,.8 -1.6,.1 -3.7,-1 .1,-1.7 2,-2 1.1,-2.4 z m -4.7,1.2 v 1.1 l -1.8,2 h -1.2 v -2.2 l 1.6,-1.5 z"
       id="path669">
      <title
         id="title667">Louisiana</title>
    </path>
    <path
       class="me"
       d="m 875,128.7 .6,4 3.2,2 .8,2.2 2.3,1.4 1.4,-.3 1,-3 -.8,-2.9 1.6,-.9 .5,-2.8 -.6,-1.3 3.3,-1.9 -2.2,-2.3 .9,-2.4 1.4,-2.2 .5,3.2 1.6,-2 1.3,.9 1.2,-.8 v -1.7 l 3.2,-1.3 .3,-2.9 2.5,-.2 2.7,-3.7 v -.7 l -.9,-.5 -.1,-3.3 .6,-1.1 .2,1.6 1,-.5 -.2,-3.2 -.9,.3 -.1,1.2 -1.2,-1.4 .9,-1.4 .6,.1 1.1,-.4 .5,2.8 2,-.3 2.9,.7 v -1 l -1.1,-1.2 1.3,.1 .1,-2.3 .6,.8 .3,1.9 2.1,1.5 .2,-1 .9,-.2 -.3,-.8 .8,-.6 -.1,-1.6 -1.6,-.2 -2,.7 1.4,-1.6 .7,-.8 1.3,-.2 .4,1.3 1.7,1.6 .4,-2.1 2.3,-1.2 -.9,-1.3 .1,-1.7 1.1,.5 h .7 l 1.7,-1.4 .4,-2.3 2.2,.3 .1,-.7 .2,-1.6 .5,1.4 1.5,-1 2.3,-4.1 -.1,-2.2 -1.4,-2 -3,-3.2 h -1.9 l -.8,2.2 -2.9,-3 .3,-.8 v -1.5 l -1.6,-4.5 -.8,-.2 -.7,.4 h -4.8 l -.3,-3.6 -8.1,-26 -7.3,-3.7 -2.9,-.1 -6.7,6.6 -2.7,-1 -1,-3.9 h -2.7 l -6.9,19.5 .7,6.2 -1.7,2.4 -.4,4.6 1.3,3.7 .8,.2 v 1.6 l -1.6,4.5 -1.5,1.4 -1.3,2.2 -.4,7.8 -2.4,-1 -1.5,.4 z m 34.6,-24.7 -1,.8 v 1.3 l .7,-.8 .9,.8 .4,-.5 1.1,.2 -1,-.8 .4,-.8 z m -1.7,2.6 -1,1.1 .5,.4 -.1,1 h 1.1 v -1.8 z m -3,-1.6 .9,1.3 1,.5 .3,-1 v -1.8 l -1.3,-.7 -.4,1.2 z m -1,5 -1.7,-1.7 1.6,-2.4 .8,.3 .2,1.1 1,.8 v 1.1 l -1,1 z"
       id="path673">
      <title
         id="title671">Maine</title>
    </path>
    <path
       class="md"
       d="m 822.9,269.3 0,-1.7 h -.8 l 0,1.8 z m 11.8,-3.9 1.2,-2.2 .1,-2.5 -.6,-.6 -.7,.9 -.2,2.1 -.8,1.4 -.3,1.1 -4.6,1.6 -.7,.8 -1.3,.2 -.4,.9 -1.3,.6 -.3,-2.5 .4,-.7 -.8,-.5 .2,-1.5 -1.6,1 v -2 l 1.2,-.3 -1.9,-.4 -.7,-.8 .4,-1.3 -.8,-.6 -.7,1.6 .5,.8 -.7,.6 -1.1,.5 -2,-1 -.2,-1.2 -1,-1.1 -1.4,-1.7 1.5,-.8 -1,-.6 v -.9 l .6,-1 1.7,-.3 -1.4,-.6 -.1,-.7 -1.3,-.1 -.4,1.1 -.6,.3 .1,-3.4 1,-1 .8,.7 .1,-1.6 -1,-.9 -.9,1.1 -1,1.4 -.6,-1 .2,-2.4 .9,-1 .9,.9 1.2,-.7 -.4,-1.7 -1,1 -.9,-2.1 -.2,-1.7 1.1,-2.4 1.1,-1.4 1.4,-.2 -.5,-.8 .5,-.6 -.3,-.7 .2,-2.1 -1.5,.4 -.8,1.1 1,1.3 -2.6,3.6 -.9,-.4 -.7,.9 -.6,2.2 -1.8,.5 1.3,.6 1.3,1.3 -.2,.7 .9,1.2 -1.1,1 .5,.3 -.5,1.3 v 2.1 l -.5,1.3 .9,1.1 .7,3.4 1.3,1.4 1.6,1.4 .4,2.8 1.6,2 .4,1.4 v 1 h -.7 l -1.5,-1.2 -.4,.2 -1.2,-.2 -1.7,-1.4 -1.4,-.3 -1,.5 -1.2,-.3 -.4,.2 -1.7,-.8 -1,-1 -1,-1.3 -.6,-.2 -.8,.7 -1.6,1.3 -1.1,-.8 -.4,-2.3 .8,-2.1 -.3,-.5 .3,-.4 -.7,-1 1,-.1 1,-.9 .4,-1.8 1.7,-2.6 -2.6,-1.8 -1,1.7 -.6,-.6 h -1 l -.6,-.1 -.4,-.4 .1,-.5 -1.7,-.6 -.8,.3 -1.2,-.1 -.7,-.7 -.5,-.2 -.2,-.7 .6,-.8 v -.9 l -1.2,-.2 -1,-.9 -.9,.1 -1.6,-.3 -.9,-.4 .2,-1.6 -1,-.5 -.2,-.7 h -.7 l -.8,-1.2 .2,-1 -2.6,.4 -2.2,-1.6 -1.4,.3 -.9,1.4 h -1.3 l -1.7,2.9 -3.3,.4 -1.9,-1 -2.6,3.8 -2.2,-.3 -3.1,3.9 -.9,1.6 -1.8,1.6 -1.7,-11.4 60.5,-11.8 7.6,27.1 10.9,-2.3 0,5.3 -.1,3.1 -1,1.8 z m -13.4,-1.8 -1.3,.9 .8,1.8 1.7,.8 -.4,-1.6 z"
       id="path677"
       style="stroke-width:1;stroke-miterlimit:4;stroke-dasharray:none;stroke:#f00000;stroke-opacity:1">
      <title
         id="title675">Maryland</title>
    </path>
    <path
       class="ma"
       d="m 899.9,174.2 h 3.4 l .9,-.6 .1,-1.3 -1.9,-1.8 .4,1 -1.5,1.5 h -2.3 l .1,.8 z m -9,1.8 -1.2,-.6 1,-.8 .6,-2.1 1.2,-1 .8,-.2 .6,.9 1.1,.2 .6,-.6 .5,1.9 -1.3,.3 -2.8,.7 z m -34.9,-23.4 18.4,-3.8 1,-1.5 .3,-1.7 1.9,-.6 .5,-1.1 1.7,-1.1 1.3,.3 1.7,3.3 1,.4 1.1,-1.3 .8,1.3 v 1.1 l -3,2.4 .2,.8 -.9,1 .4,.8 -1.3,.3 .9,1.2 -.8,.7 .6,1 .9,-.2 .3,-.8 1.1,.6 h 1.8 l 2.5,2.6 .2,2.6 1.8,.1 .8,1.1 .6,2 1,.7 h 1.9 l 1.9,-.1 .8,-.9 1.6,-1.2 1.1,-.3 -1.2,-2.1 -.3,.9 -1.5,-3.6 h -.8 l -.4,.9 -1.2,-1 1.3,-1.1 1.8,.4 2.3,2.1 1.3,2.7 1.2,3.3 -1,2.8 v -1.8 l -.7,-1 -3.5,2.3 -.9,-.3 -1.6,1 -.1,1.2 -2.2,1.2 -2,2.1 -2,1.9 h -1.2 l 3.3,-3.3 .5,-1.9 -.5,-.6 -.3,-1.3 -.9,-.1 -.1,1.3 -1,1.2 h -1.2 l -.3,1.1 .4,1.2 -1.2,1.1 -1.1,-.2 -.4,1 -1.4,-3 -1.3,-1.1 -2.6,-1.3 -.6,-2.2 h -.8 l -.7,-2.6 -6.5,2 -.1,-.3 -14.9,3.4 v .7 l -.9,.3 -.5,-.7 -10.5,2.4 -.7,-1 .5,-15 z"
       id="path681">
      <title
         id="title679">Massachusetts</title>
    </path>
    <path
       class="mi"
       d="m 663.3,209.8 .1,1.4 21.4,-3.5 .5,-1.2 3.9,-5.9 v -4.3 l .8,-2.1 2.2,-.8 2,-7.8 1,-.5 1,.6 -.2,.6 -1.1,.8 .3,.9 .8,.4 1.9,-1.4 .4,-9.8 -1.6,-2.3 -1.2,-3.7 v -2.5 l -2.3,-4.4 v -1.8 l -1.2,-3.3 -2.3,-3 -2.9,-1 -4.8,3 -2.5,4.6 -.2,.9 -3,3.5 -1.5,-.2 -2.9,-2.8 -.1,-3.4 1.5,-1.9 2,-.2 1.2,-1.7 .2,-4 .8,-.8 1.1,-.1 .9,-1.7 -.2,-9.6 -.3,-1.3 -1.2,-1.2 -1.7,-1 -.1,-1.8 .7,-.6 1.8,.8 -.3,-1.7 -1.9,-2.7 -.7,-1.6 -1.1,-1.1 h -2.2 l -8.1,-2.9 -1.4,-1.7 -3.1,-.3 -1.2,.3 -4.4,-2.3 h -1.4 l .5,1 -2.7,-.1 .1,.6 .6,.6 -2.5,2.1 .1,1.8 1.5,2.3 1.5,.2 v .6 l -1.5,.5 -2.1,-.1 -2.8,2.5 .1,2.5 .4,5.8 -2.2,3.4 .8,-4.5 -.8,-.6 -.9,5.3 -1,-2.3 .5,-2.3 -.5,-1 .6,-1.3 -.6,-1.1 1,-1 v -1.2 l -1.3,.6 -1.3,3.1 -.7,.7 -1.3,2.4 -1.7,-.2 -.1,1.2 h -1.6 l .2,1.5 .2,2 -3,1.2 .1,1.3 1,1.7 -.1,5.2 -1.3,4.4 -1.7,2.5 1.2,1.4 .8,3.5 -1,2.5 -.2,2.1 1.7,3.4 2.5,4.9 1.2,1.9 1.6,6.9 -.1,8.8 -.9,3.9 -2,3.2 -.9,3.7 -2,3 -1.2,1 z m -95.8,-96.8 3,3.8 17,3.8 1.4,1 4,.8 .7,.5 2.8,-.2 4.9,.8 1.4,1.5 -1,1 .8,.8 3.8,.7 1.2,1.2 .1,4.4 -1.3,2.8 2,.1 1,-.8 .9,.8 -1.1,3.1 1,1.6 1.2,.3 .8,-1.8 2.9,-4.6 1.6,-6 2.3,-2 -.5,-1.6 .5,-.9 1,1.6 -.3,2.2 2.9,-2.2 .2,-2.3 2.1,.6 .8,-1.6 .7,.6 -.7,1.5 -1,.5 -1,2 1.4,1.8 1.1,-.5 -.5,-.7 1,-1.5 1.9,-1.7 h .8 l .2,-2.6 2,-1.8 7.9,-.5 1.9,-3.1 3.8,-.3 3.8,1.2 4.2,2.7 .7,-.2 -.2,-3.5 .7,-.2 4.5,1.1 1.5,-.2 2.9,-.7 1.7,.4 1.8,.1 v -1.1 l -.7,-.9 -1.5,-.2 -1.1,-.8 .5,-1.4 -.8,-.3 -2.6,.1 -.1,-1 1.1,-.8 .6,.8 .5,-1.8 -.7,-.7 .7,-.2 -1.4,-1.3 .3,-1.3 .1,-1.9 h -1.3 l -1.5,1 -1.9,.1 -.5,1.8 -1.9,.2 -.3,-1.2 -2.2,.1 -1,1.2 -.7,-.1 -.2,-.8 -2.6,.4 -.1,-4.8 1,-2 -.7,-.1 -1.8,1.1 h -2.2 l -3.8,2.7 -6.2,.3 -4.1,.8 -1.9,1.5 -1.4,1.3 -2.5,1.7 -.3,.8 -.6,-1.7 -1.3,-.6 v .6 l .7,.7 v 1.3 l -1.5,-.6 h -.6 l -.3,1.2 -2,-1.9 -1.3,-.2 -1.3,1.5 -3.2,-.1 -.5,-1.4 -2,-1.9 -1.3,-1.6 v -.7 l -1.1,-1.4 -2.6,-1.2 -3.3,-.1 -1.1,-.9 h -1.4 l -.7,.4 -2.2,2.2 -.7,1.1 -1,-.7 .2,-1 .8,-2.1 3.2,-5 .8,-.2 1.7,-1.9 .7,-1.6 3,-.6 .8,-.6 -.1,-1 -.5,-.5 -4.5,.2 -2,.5 -2.6,1.2 -1.2,1.2 -1.7,2.2 -1.8,1 -3.3,3.4 -.4,1.6 -7.4,4.6 -4,.5 -1.8,.4 -2.3,3 -1.8,.7 -4.4,2.3 z m 100.7,3.8 3.8,.1 .6,-.5 -.2,-2 -1.7,-1.8 -1.9,.1 -.1,.5 1.1,.4 -1.6,.8 -.3,1 -.6,-.6 -.4,.8 z m -75.1,-41.9 -2.3,.2 -2.7,1.9 -7.1,5.3 .8,1 1.8,.3 2.8,-2 -1.1,-.5 2.3,-1.6 h 1 l 3,-1.9 -.1,-.9 z m 41.1,62.8 v 1 l 2.1,1.6 -.2,-2.4 z m -.7,2.8 1.1,.1 v .9 h -1 z m 21.4,-21.3 v .9 l .8,-.2 v -.5 z m 4.7,3.1 -.1,-1.1 -1.6,-.2 -.6,-.4 h -.9 l -.4,.3 .9,.4 1.1,1.1 z m -18,1.2 -.1,1.1 -.3,.7 .2,2.2 .4,.3 .7,.1 .5,-.9 .1,-1.6 -.3,-.6 -.1,-1.1 z"
       id="path685">
      <title
         id="title683">Michigan</title>
    </path>
    <path
       class="mn"
       d="m 464.7,68.6 -1.1,2.8 .8,1.4 -.3,5.1 -.5,1.1 2.7,9.1 1.3,2.5 .7,14 1,2.7 -.4,5.8 2.9,7.4 .3,5.8 -.1,2.1 -.1,2.2 -.9,2 -3.1,1.9 -.3,1.2 1.7,2.5 .4,1.8 2.6,.6 1.5,1.9 -.2,39.5 h 28.2 l 36.3,-.9 18.6,-.7 -1.1,-4.5 -.2,-3 -2.2,-3 -2.8,-.7 -5.2,-3.6 -.6,-3.3 -6.3,-3.1 -.2,-1.3 h -3.3 l -2.2,-2.6 -2,-1.3 .7,-5.1 -.9,-1.6 .5,-5.4 1,-1.8 -.3,-2.7 -1.2,-1.3 -1.8,-.3 v -1.7 l 2.8,-5.8 5.9,-3.9 -.4,-13 .9,.4 .6,-.5 .1,-1.1 .9,-.6 1.4,1.2 .7,-.1 v 0 l -1.2,-2.2 4.3,-3.1 3.1,-3.7 1.6,-.8 4.7,-5.9 6.3,-5.8 3.9,-2.1 6.3,-2.7 7.6,-4.5 -.6,-.4 -3.7,.7 -2.8,.1 -1,-1.6 -1.4,-.9 -9.8,1.2 -1,-2.8 -1.6,-.1 -1.7,.8 -3.7,3.1 h -4.1 l -2.1,-1 -.3,-1.7 -3.9,-.8 -.6,-1.6 -.7,-1.3 -1,.9 -2.6,.1 -9.9,-5.5 h -2.9 l -.8,-.7 -3.1,1.3 -.8,1.3 -3.3,.8 -1.3,-.2 v -1.7 l -.7,-.9 h -5.9 l -.4,-1.4 h -2.6 l -1.1,.4 -2.4,-1.7 .3,-1.4 -.6,-2.4 -.7,-1.1 -.2,-3 -1,-3.1 -2.1,-1.6 h -2.9 l .1,8 -30.9,-.4 z"
       id="path689">
      <title
         id="title687">Minnesota</title>
    </path>
    <path
       class="ms"
       d="m 623.8,468.6 -5,.1 -2.4,-1.5 -7.9,2.5 -.9,-.7 -.5,.2 -.1,1.6 -.6,.1 -2.6,2.7 -.7,-.1 -.6,-.7 -1.2,-1.8 .3,-1.3 -4.8,-6.8 .9,-4.6 1,-1.4 .1,-1.4 -36,2 1.7,-11.9 2.4,-4.8 6,-8.4 -1.8,-2.5 h 2 v -3.3 l -2.4,-2.5 .5,-1.7 -1.2,-1 -1.6,-7.1 .6,-1.4 1.2,-1.5 .5,-3 -1.5,-2.3 -.5,-2.2 .9,-.7 v -.8 l -1.7,-1.1 -.1,-.7 1.6,-.9 -1.2,-1.1 1.7,-7.1 3.4,-1.6 v -.8 l -1.1,-1.4 2.9,-5.4 h 1.9 l 1.5,-1.2 -.3,-5.2 3.1,-4.5 1.8,-.6 -.5,-3.1 38.3,-2.6 1.3,2 -1.3,67 4.4,33.2 z"
       id="path693">
      <title
         id="title691">Mississippi</title>
    </path>
    <path
       class="mo"
       d="m 555.3,248.9 -1.1,-1.1 -.6,-1.6 -1.7,-1.3 -14.3,.8 -27.2,1.2 -25.9,-.1 1.3,1.3 -.3,1.4 2.1,3.7 3.9,6.3 2.9,3 2,.6 .9,-1 1.5,2.1 -.1,1.2 -2.7,2.6 -.5,2.3 2.5,2.5 2.6,4.7 3.2,.7 .5,48.1 .2,10.8 39.1,-.7 39.8,-2 1.6,2.5 v 2.2 l -1.7,1.5 -2.8,5.1 11.2,-.8 1,-2 1.2,-.5 v -.7 l -1.2,-1.1 -.6,-1 1.7,.2 .8,-.7 -1.4,-1.5 1.4,-.5 .1,-1 -.6,-1 v -1.3 l -.7,-.7 .2,-1 h 1.1 l .7,.7 -.3,1 .8,.7 .8,-1 1,-2.7 1.4,.9 .7,-.4 1.2,-4.1 -1,-1 1,-2 .2,-.9 -1.3,-.8 h -2.8 l -1.4,-1.5 -1.8,-3.8 v -1.9 l .8,-.6 .1,-1.3 -1.7,-1.9 -.9,-2.5 -2.7,-4.1 -4.8,-1.3 -7.4,-7.1 -.4,-2.4 2.8,-7.6 -.4,-1.9 1.2,-1.1 v -1.3 l -2.8,-1.5 -3,-.7 -3.4,1.2 -1.3,-2.3 .6,-1.9 -.7,-2.4 -8.6,-8.4 -2.2,-1.5 -2.5,-5.9 -1.2,-5.4 1.4,-3.7 z"
       id="path697">
      <title
         id="title695">Missouri</title>
    </path>
    <path
       class="mt"
       d="m 247,130.5 57.3,7.9 51,5.3 2,-20.7 5.2,-66.7 -53.5,-5.6 -54.3,-7.7 -65.9,-12.5 -4.8,22 3.7,7.4 -1.6,4.8 3.6,4.8 1.9,.7 3.9,8.3 v 2.1 l 2.3,3 h .9 l 1.4,2.1 h 3.2 v 1.6 l -7.1,17 -.5,4.1 1.4,.5 1.6,2.6 2.8,-1.4 3.6,-2.4 1.9,1.9 .5,2.5 -.5,3.2 2.5,9.7 2.6,3.5 2.3,1.4 .4,3 v 4.1 l 2.3,2.3 1.6,-2.3 6.9,1.6 2.1,-1.2 9,1.7 2.8,-3.3 1.8,-.6 1.2,1.8 1.6,4.1 .9,.1 z"
       id="path701">
      <title
         id="title699">Montana</title>
    </path>
    <path
       class="ne"
       d="m 402.5,191.1 38,1.6 3.4,3.2 1.7,.2 2.1,2 1.8,-.1 1.8,-2 1.5,.6 1,-.7 .7,.5 .9,-.4 .7,.4 .9,-.4 1,.5 1.4,-.6 2,.6 .6,1.1 6.1,2.2 1.2,1.3 .9,2.6 1.8,.7 1.5,-.2 .5,.9 v 2.3 l .6,1.7 v 1.4 l 1.3,3.7 2.2,4.3 .2,3.7 2.8,5 .4,6.1 1.3,.7 -.2,2.9 .8,3.3 -.7,2.2 1.8,4.4 1.3,1.3 -.3,1.4 2.1,3.7 3.9,6.3 h -32.4 l -43.7,-1.2 -36,-2 1.4,-22.1 -33.1,-2.4 3.7,-44.2 z"
       id="path705">
      <title
         id="title703">Nebraska</title>
    </path>
    <path
       class="nv"
       d="m 167.6,296.8 -3.4,17.5 -2.4,2.9 h -2 l -1.2,-2.7 -3.7,-1.4 -3.5,.6 -1,13.6 .5,4.9 -.5,2.9 -1.4,3 -70.4,-105 -1.1,-3.5 16.4,-63.1 47,11.2 24.4,5.4 23.3,4.7 z"
       id="path709">
      <title
         id="title707">Nevada</title>
    </path>
    <path
       class="nh"
       d="m 862.6,93.6 -1.3,.1 -1,-1.1 -1.9,1.4 -.5,6.1 1.2,2.3 -1.1,3.5 2.1,2.8 -.4,1.7 .1,1.3 -1.1,2.1 -1.4,.4 -.6,1.3 -2.1,1 -.7,1.5 1.4,3.4 -.5,2.5 .5,1.5 -1,1.9 .4,1.9 -1.3,1.9 .2,2.2 -.7,1.1 .7,4.5 .7,1.5 -.5,2.6 .9,1.8 -.2,2.5 -.5,1.3 -.1,1.4 2.1,2.6 18.4,-3.8 1,-1.5 .3,-1.7 1.9,-.6 .5,-1.1 1.7,-1.1 1.3,.3 .8,-4.8 -2.3,-1.4 -.8,-2.2 -3.2,-2 -.6,-4 -11.9,-36.8 z"
       id="path713">
      <title
         id="title711">New Hampshire</title>
    </path>
    <path
       class="nj"
       d="m 842.5,195.4 -14.6,-4.9 -1.8,2.5 .1,2.2 -3,5.4 1.5,1.8 -.7,2 -1,1 .5,3.6 2.7,.9 1,2.8 2.1,1.1 4.2,3.2 -3.3,2.6 -1.6,2.3 -1.8,3 -1.6,.6 -1.4,1.7 -1,2.2 -.3,2.1 .8,.9 .4,2.3 1.2,.6 2.4,1.5 1.8,.8 1.6,.8 .1,1.1 .8,.1 1.1,-1.2 .8,.4 2.1,.2 -.2,2.9 .2,2.5 1.8,-.7 1.5,-3.9 1.6,-4.8 2.9,-2.8 .6,-3.5 -.6,-1.2 1.7,-2.9 v -1.2 l -.7,-1.1 1.2,-2.7 -.3,-3.6 -.6,-8.2 -1.2,-1.4 v 1.4 l .5,.6 h -1.1 l -.6,-.4 -1.3,-.2 -.9,.6 -1.2,-1.6 .7,-1.7 v -1 l 1.7,-.7 .8,-2.1 z"
       id="path717">
      <title
         id="title715">New Jersey</title>
    </path>
    <path
       class="nm"
       d="m 357.5,332.9 h -.8 l -7.9,99.3 -31.8,-2.6 -34.4,-3.6 -.3,3 2,2.2 -30.8,-4.1 -1.4,10.2 -15.7,-2.2 17.4,-124.1 52.6,6.5 51.7,4.8 z"
       id="path721">
      <title
         id="title719">New Mexico</title>
    </path>
    <path
       class="ny"
       d="m 872.9,181.6 -1.3,.1 -.5,1 z m -30.6,22.7 .7,.6 1.3,-.3 1.1,.3 .9,-1.3 h 1.9 l 2.4,-.9 5.1,-2.1 -.5,-.5 -1.9,.8 -2,.9 .2,-.8 2.6,-1.1 .8,-1 1.2,.1 4.1,-2.3 v .7 l -4.2,3 4.5,-2.8 1.7,-2.2 1.5,-.1 4.5,-3.1 3.2,-3.1 3,-2.3 1,-1.2 -1.7,-.1 -1,1.2 -.2,.7 -.9,.7 -.8,-1.1 -1.7,1 -.1,.9 -.9,-.2 .5,-.9 -1.2,-.7 -.6,.9 .9,.3 .2,.5 -.3,.5 -1.4,2.6 h -1.9 l .9,-1.8 .9,-.6 .3,-1.7 1.4,-1.6 .9,-.8 1.5,-.7 -1.2,-.2 -.7,.9 h -.7 l -1.1,.8 -.2,1 -2.2,2.1 -.4,.9 -1.4,.9 -7.7,1.9 .2,.9 -.9,.7 -2,.3 -1,-.6 -.2,1.1 -1.1,-.4 .1,1 -1.2,-.1 -1.2,.5 -.2,1.1 h -1 l .2,1 h -.7 l .2,1 -1.8,.4 -1.5,2.3 z m -.8,-.4 -1.6,.4 v 1 l -.7,1.6 .6,.7 2.4,-2.3 -.1,-.9 z m -10.1,-95.2 -.6,1.9 1.4,.9 -.4,1.5 .5,3.2 2.2,2.3 -.4,2.2 .6,2 -.4,1 -.3,3.8 3.1,6.7 -.8,1.8 .9,2.2 .9,-1.6 1.9,1.5 3,14.2 -.5,2 1.1,1 -.5,15 .7,1 2.8,16.3 1.8,1.5 -3.5,3.4 1.7,2.2 -1.3,3.3 -1.5,1.7 -1.5,2.3 -.2,-.7 .4,-5.9 -14.6,-4.9 -1.6,-1.1 -1.9,.3 -3,-2.2 -3,-5.8 h -2 l -.4,-1.5 -1.7,-1.1 -70.5,13.9 -.8,-6 4.3,-3.9 .6,-1.7 3.9,-2.5 .6,-2.4 2.3,-2 .8,-1.1 -1.7,-3.3 -1.7,-.5 -1.8,-3 -.2,-3.2 7.6,-3.9 8.2,-1.6 h 4.4 l 3.2,1.6 .9,-.1 1.8,-1.6 3.4,-.7 h 3 l 2.6,-1.3 2.5,-2.6 2.4,-3.1 1.9,-.4 1.1,-.5 .4,-3.2 -1.4,-2.7 -1.2,-.7 2,-1.3 -.1,-1.8 h -1.5 l -2.3,-1.4 -.1,-3.1 6.2,-6.1 .7,-2.4 3.7,-6.3 5.9,-6.4 2.1,-1.7 2.5,.1 20.6,-5.2 z"
       id="path725">
      <title
         id="title723">New York</title>
    </path>
    <path
       class="nc"
       d="m 829,300.1 -29.1,6.1 -39.4,7.3 -29.4,3.5 v 5.2 l -1.5,-.1 -1.4,1.2 -2.4,5.2 -2.6,-1.1 -3.5,2.5 -.7,2.1 -1.5,1.2 -.8,-.8 -.1,-1.5 -.8,-.2 -4,3.3 -.6,3.4 -4.7,2.4 -.5,1.2 -3.2,2.6 -3.6,.5 -4.6,3 -.8,4.1 -1.3,.9 -1.5,-.1 -1.4,1.3 -.1,4.9 21.4,-3 4.4,-1.9 1.3,-.1 7.3,-4.3 23.2,-2.2 .4,.5 -.2,1.4 .7,.3 1.2,-1.5 3.3,3 .1,2.6 19.7,-2.8 24.5,17.1 4,-2.2 3,-.7 h 1.7 l 1.1,1.1 .8,-2 .6,-5 1.7,-3.9 5.4,-6.1 4.1,-3.5 5.4,-2.3 2.5,-.4 1.3,.4 .7,1.1 3.3,-6.6 3.3,-5.3 -.7,-.3 -4.4,6.8 -.5,-.8 2,-2.2 -.4,-1.5 -2,-.5 1,1.3 -1.2,.1 -1.2,-1.8 -1.2,2 -1.6,.2 1,-2.7 .7,-1.7 -.2,-2.9 -2.2,-.1 .9,-.9 1.1,.3 2.7,.1 .8,-.5 h 2.3 l 2,-1.9 .2,-3.2 1.3,-1.4 1.2,-.2 1.3,-1 -.5,-3.7 -2.2,-3.8 -2.7,-.2 -.9,1.6 -.5,-1 -2.7,.2 -1.2,.4 -1.9,1.2 -.3,-.4 h -.9 l -1.8,1.2 -2.6,.5 v -1.3 l .8,-1 1,.7 h 1 l 1.7,-2.1 3.7,-1.7 2,-2.2 h 2.4 l .8,1.3 1.7,.8 -.5,-1.5 -.3,-1.6 -2.8,-3.1 -.3,-1.4 -.4,1 -.9,-1.3 z m 7,31 2.7,-2.5 4.6,-3.3 v -3.7 l -.4,-3.1 -1.7,-4.2 1.5,1.4 1,3.2 .4,7.6 -1.7,.4 -3.1,2.4 -3.2,3.2 z m 1.9,-19.3 -.9,-.2 v 1 l 2.5,2.2 -.2,-1.4 z m 2.9,2.1 -1.4,-2.8 -2.2,-3.4 -2.4,-3 -2.2,-4.3 -.8,-.7 2.2,4.3 .3,1.3 3.4,5.5 1.8,2.1 z"
       id="path729">
      <title
         id="title727">North Carolina</title>
    </path>
    <path
       class="nd"
       d="m 464.7,68.6 -1.1,2.8 .8,1.4 -.3,5.1 -.5,1.1 2.7,9.1 1.3,2.5 .7,14 1,2.7 -.4,5.8 2.9,7.4 .3,5.8 -.1,2.1 -29.5,-.4 -46,-2.1 -39.2,-2.9 5.2,-66.7 44.5,3.4 55.3,1.6 z"
       id="path733">
      <title
         id="title731">North Dakota</title>
    </path>
    <path
       class="oh"
       d="m 685.7,208.8 1.9,-.4 3,1.3 2.1,.6 .7,.9 h 1 l 1,-1.5 1.3,.8 h 1.5 l -.1,1 -3.1,.5 -2,1.1 1.9,.8 1.6,-1.5 2.4,-.4 2.2,1.5 1.5,-.1 2.5,-1.7 3.6,-2.1 5.2,-.3 4.9,-5.9 3.8,-3.1 9.3,-5.1 4.9,29.9 -2.2,1.2 1.4,2.1 -.1,2.2 .6,2 -1.1,3.4 -.1,5.4 -1,3.6 .5,1.1 -.4,2.2 -1.1,.5 -2,3.3 -1.8,2 h -.6 l -1.8,1.7 -1.3,-1.2 -1.5,1.8 -.3,1.2 h -1.3 l -1.3,2.2 .1,2.1 -1,.5 1.4,1.1 v 1.9 l -1,.2 -.7,.8 -1,.5 -.6,-2.1 -1.6,-.5 -1,2.3 -.3,2.2 -1.1,1.3 1.3,3.6 -1.5,.8 -.4,3.5 h -1.5 l -3.2,1.4 -1.2,-2.1 -3.5,-1.4 -.8,-2.9 -.5,-.8 -3.4,1.8 -.6,1.7 h -.9 l -1.3,.7 -1.2,-.8 -3,-.8 -1.9,.8 v 1 l -2.2,-.2 -1.9,-2.1 -2.3,.2 -4.1,-.7 v -1 l -2.2,-3.4 -2.9,-1.2 -1.9,.8 -2.2,-.1 -1.3,-.5 -6.6,-57.2 21.4,-3.5 z"
       id="path737">
      <title
         id="title735">Ohio</title>
    </path>
    <path
       class="ok"
       d="m 501.5,398.6 -4.6,-3.8 -2.2,-.9 -.5,1.6 -5.1,.3 -.6,-1.5 -5,2.5 -1.6,-.7 -3.7,.3 -.6,1.7 -3.6,.9 -1.3,-1.2 -1.2,.1 -2,-1.8 -2.1,.7 -2,-.5 -1.8,-2 -2.5,4.2 -1.2,.8 -1,-1.8 .3,-2 -1.2,-.7 -2.3,2.5 -1.7,-1.2 -.1,-1.5 -1.3,.5 -2.6,-1.7 -3,2.6 -2.3,-1.1 .7,-2.1 -2.3,.1 -1.9,-3 -3.5,-1.1 -2,2.3 -2.3,-2.2 -1.4,.4 -2,.1 -3.5,-1.9 -2.3,.1 -1.2,-.7 -.5,-2.9 -2.3,-1.7 -1.1,1.5 -1.4,-1 -1.2,-.4 -1.1,1 -1.5,-.3 -2.5,-3 -2.7,-1.3 1.4,-42.7 -52.6,-3.2 .6,-10.6 16.5,1 67.7,2.9 62,.1 .2,10.8 4.1,24.4 -.7,39 z"
       id="path741">
      <title
         id="title739">Oklahoma</title>
    </path>
    <path
       class="or"
       d="m 93.9,166.5 47,11.2 8.5,-37.3 2.9,-5.8 .4,-2.1 .8,-.9 -.9,-2 -2.9,-1.2 .2,-4.2 4,-5.8 2.5,-.8 1.6,-2.3 -.1,-1.6 1.8,-1.6 3.2,-5.5 4.2,-4.8 -.5,-3.2 -3.5,-3.1 -1.6,-3.6 -30.3,-7.3 -2.8,1 -5.4,-.9 -1.8,-.9 -1.5,1.2 -3.3,-.4 -4.5,.5 -.9,.7 -4.2,-.4 -.8,-1.6 -1.2,-.2 -4.4,1.3 -1.6,-1.1 -2.2,.8 -.2,-1.8 -2.3,-1.2 -1.5,-.2 -1,-1.1 -3,.3 -1.2,-.8 h -1.2 l -1.2,.9 -5.5,.7 -6.6,-4.2 1.1,-5.6 -.4,-4.1 -3.2,-3.7 -3.7,.1 -.4,-1.1 .4,-1.2 -.7,-.8 -1,.1 -1.1,1.3 -1.5,-.2 -.5,-1.1 -1,-.1 -.7,.6 -2,-1.9 v 4.3 l -1.3,1.3 -1.1,3.5 -.1,2.3 -4.5,12.3 -13.2,31.3 -3.2,4.6 -1.6,-.1 .1,2.1 -5.2,7.1 -.3,3.3 1,1.3 .1,2.4 -1.2,1.1 -1.2,3 .1,5.7 1.2,2.9 z"
       id="path745">
      <title
         id="title743">Oregon</title>
    </path>
    <path
       class="pa"
       d="m 826.3,189.4 -1.9,.3 -3,-2.2 -3,-5.8 h -2 l -.4,-1.5 -1.7,-1.1 -70.5,13.9 -.8,-6 -4.2,3.4 -.9,.1 -2.7,3 -3.3,1.7 4.9,29.9 3.2,19.7 17.4,-2.9 60.5,-11.8 1.2,-2.1 1.5,-1.1 1.6,-.3 1.6,.6 1.4,-1.7 1.6,-.6 1.8,-3 1.6,-2.3 3.3,-2.6 -4.2,-3.2 -2.1,-1.1 -1,-2.8 -2.7,-.9 -.5,-3.6 1,-1 .7,-2 -1.5,-1.8 3,-5.4 -.1,-2.2 1.8,-2.5 z"
       id="path749">
      <title
         id="title747">Pennsylvania</title>
    </path>
    <path
       class="ri"
       d="m 883.2,170.7 -1.3,-1.1 -2.6,-1.3 -.6,-2.2 h -.8 l -.7,-2.6 -6.5,2 3.2,12.3 -.4,1.1 .4,1.8 5.6,-3.6 .1,-3 -.8,-.8 .4,-.6 -.1,-1.3 -.9,-.7 1.2,-.4 -.9,-1.6 1.8,.7 .3,1.4 .7,1.2 -1.4,-.8 1.1,1.7 -.3,1.2 -.6,-1.1 v 2.5 l .6,-.9 .4,.9 1.3,-1.5 -.2,-2.5 1.4,3.1 1,-.9 z m -4.7,12.2 h .9 l .5,-.6 -.8,-1.3 -.7,.7 z"
       id="path753">
      <title
         id="title751">Rhode Island</title>
    </path>
    <path
       class="sc"
       d="m 772.3,350.2 -19.7,2.8 -.1,-2.6 -3.3,-3 -1.2,1.5 -.7,-.3 .2,-1.4 -.4,-.5 -23.2,2.2 -7.3,4.3 -1.3,.1 -4.4,1.9 -.1,1.9 -1.9,1 -1.4,3.2 .2,1.3 6.1,3.8 2.6,-.3 3.1,4 .4,1.7 4.2,5.1 2.6,1.7 1.4,.2 2.2,1.6 1.1,2.2 2,1.6 1.8,.5 2.7,2.7 .1,1.4 2.6,2.8 5,2.3 3.6,6.7 .3,2.7 3.9,2.1 2.5,4.8 .8,3.1 4.2,.4 .8,-1.5 h .6 l 1.8,-1.5 .5,-2 3.2,-2.1 .3,-2.4 -1.2,-.9 .8,-.7 .8,.4 1.3,-.4 1.8,-2.1 3.8,-1.8 1.6,-2.4 .1,-.7 4.8,-4.4 -.1,-.5 -.9,-.8 1.1,-1.5 h .8 l .4,.5 .7,-.8 h 1.3 l .6,-1.5 2.3,-2.1 -.3,-5.4 .8,-2.3 3.6,-6.2 2.4,-2.2 2.2,-1.1 z"
       id="path757">
      <title
         id="title755">South Carolina</title>
    </path>
    <path
       class="sd"
       d="m 396.5,125.9 46,2.1 29.5,.4 -.1,2.2 -.9,2 -3.1,1.9 -.3,1.2 1.7,2.5 .4,1.8 2.6,.6 1.5,1.9 -.2,39.5 -2.2,-.1 -.1,1.6 1.3,1.5 -.1,1.1 -1,.5 .4,1.6 1.3,.4 .7,2 -1.7,5.1 -1,4.3 1.3,1.2 .3,1.3 .7,1.7 -1.5,.2 -1.8,-.7 -.9,-2.6 -1.2,-1.3 -6.1,-2.2 -.6,-1.1 -2,-.6 -1.4,.6 -1,-.5 -.9,.4 -.7,-.4 -.9,.4 -.7,-.5 -1,.7 -1.5,-.6 -1.8,2 -1.8,.1 -2.1,-2 -1.7,-.2 -3.4,-3.2 -38,-1.6 -51.1,-3.5 3.9,-43.9 2,-20.7 z"
       id="path761">
      <title
         id="title759">South Dakota</title>
    </path>
    <path
       class="tn"
       d="m 620.9,365.1 45.7,-4 22.9,-2.9 .1,-4.9 1.4,-1.3 1.5,.1 1.3,-.9 .8,-4.1 4.6,-3 3.6,-.5 3.2,-2.6 .5,-1.2 4.7,-2.4 .6,-3.4 4,-3.3 .8,.2 .1,1.5 .8,.8 1.5,-1.2 .7,-2.1 3.5,-2.5 2.6,1.1 2.4,-5.2 1.4,-1.2 1.5,.1 0,-5.2 .3,-.7 -4.6,.5 -.2,1 -28.9,3.3 -5.6,1.4 -20.5,1.4 -5.2,.8 -17.4,1 -2.6,.8 -22.6,2 -.7,-.6 h -3.7 l 1.2,3.2 -.6,.9 -23.3,1.5 -.8,1 -.8,-.7 h -1 v 1.3 l .6,1 -.1,1 -1.4,.5 1.4,1.5 -.8,.7 -1.7,-.2 .6,1 1.2,1.1 v .7 l -1.2,.5 -1,2 .1,.6 1.4,1 -.4,.7 h -1.5 v .5 l .9,.9 .1,.8 -1.4,.2 -.5,.8 -1.6,.2 -.9,.9 .6,.9 1.1,-.1 .5,.9 -1.6,1.3 .4,1.5 -2,-.6 -.1,.7 .4,1.1 -.3,1.4 -1.3,-.8 -.8,.8 1.1,.1 .1,1.5 -.6,1 1.1,.9 -.3,1.5 .8,.7 -.7,1 -1.2,-.5 -.9,2.2 -1.6,.7 z"
       id="path765">
      <title
         id="title763">Tennessee</title>
    </path>
    <path
       class="tx"
       d="m 282.3,429 .3,-3 34.4,3.6 31.8,2.6 7.9,-99.3 .8,0 52.6,3.2 -1.4,42.7 2.7,1.3 2.5,3 1.5,.3 1.1,-1 1.2,.4 1.4,1 1.1,-1.5 2.3,1.7 .5,2.9 1.2,.7 2.3,-.1 3.5,1.9 2,-.1 1.4,-.4 2.3,2.2 2,-2.3 3.5,1.1 1.9,3 2.3,-.1 -.7,2.1 2.3,1.1 3,-2.6 2.6,1.7 1.3,-.5 .1,1.5 1.7,1.2 2.3,-2.5 1.2,.7 -.3,2 1,1.8 1.2,-.8 2.5,-4.2 1.8,2 2,.5 2.1,-.7 2,1.8 1.2,-.1 1.3,1.2 3.6,-.9 .6,-1.7 3.7,-.3 1.6,.7 5,-2.5 .6,1.5 5.1,-.3 .5,-1.6 2.2,.9 4.6,3.8 6.4,1.9 2.6,2.3 2.8,-1.3 3.2,.8 .2,11.9 .5,19.9 .7,3.4 2.6,2.8 .7,5.4 3.8,4.6 .8,4.3 h 1 l -.1,7.3 -3.3,6.4 1.3,2.3 -1.3,1.5 .7,3 -.1,4.3 -2.2,3.5 -.1,.8 -1.7,1.2 1,1.8 1.2,1.1 -3.5,.3 -8.4,3.9 -3.5,1.4 -1.8,1.8 -.7,-.5 2.1,-2.3 1.8,-.7 .5,-.9 -2.9,-.1 -.7,-.8 .8,-2 -.9,-1.8 h -.6 l -2.4,1.3 -1.9,2.6 .3,1.7 3.3,3.4 1.3,.3 v .8 l -2.3,1.6 -4.9,4 -4,3.9 -3.2,1.4 -5,3 -3.7,2 -4.5,1.9 -4.1,2.5 3.2,-3 v -1.1 l .6,-.8 -.2,-1.8 -1.5,-.1 -1.1,1.5 -2.6,1.3 -1.8,-1.2 -.3,-1.7 h -1.5 l .8,2.2 1.4,.7 1.2,.9 1.8,1.6 -.7,.8 -3.9,1.7 -1.7,.1 -1.2,-1.2 -.5,2.1 .5,1.1 -2.7,2 -1.5,.2 -.8,.7 -.4,1.7 -1.8,3.3 -1.6,.7 -1.6,-.6 -1.8,1.1 .3,1.4 1.3,.8 1,.8 -1.8,3.5 -.3,2.8 -1,1.7 -1.4,1 -2.9,.4 1.8,.6 1.9,-.6 -.4,3.2 -1.1,-.1 .2,1.2 .3,1.4 -1.3,.9 v 3.1 l 1.6,1.4 .6,3.1 -.4,2.2 -1,.4 .4,1.5 1.1,.4 .8,1.7 v 2.6 l 1.1,2.1 2.2,2.6 -.1,.7 -2.2,-.2 -1.6,1.4 .2,1.4 -.9,-.3 -1.4,-.2 -3.4,-3.7 -2.3,-.6 h -7.1 l -2.8,-.8 -3.6,-3 -1.7,-1 -2.1,.1 -3.2,-2.6 -5.4,-1.6 v -1.3 l -1.4,-1.8 -.9,-4.7 -1.1,-1.7 -1.7,-1.4 v -1.6 l -1.4,-.6 .6,-2.6 -.3,-2.2 -1.3,-1.4 .7,-3 -.8,-3.2 -1.7,-1.4 h -1.1 l -4,-3.5 .1,-1.9 -.8,-1.7 -.8,-.2 -.9,-2.4 -2,-1.6 -2.9,-2.5 -.2,-2.1 -1,-.7 .2,-1.6 .5,-.7 -1.4,-1.5 .1,-.7 -2,-2.2 .1,-2.1 -2.7,-4.9 -.1,-1.7 -1.8,-3.1 -5.1,-4.8 v -1.1 l -3.3,-1.7 -.1,-1.8 -1.2,-.4 v -.7 l -.8,-.2 -2.1,-2.8 h -.8 l -.7,-.6 -1.3,1.1 h -2.2 l -2.6,-1.1 h -4.6 l -4.2,-2.1 -1.3,1.9 -2.2,-.6 -3.3,1.2 -1.7,2.8 -2,3.2 -1.1,4.4 -1.4,1.2 -1.1,.1 -.9,1.6 -1.3,.6 -.1,1.8 -2.9,.1 -1.8,-1.5 h -1 l -2,-2.9 -3.6,-.5 -1.7,-2.3 -1.3,-.2 -2.1,-.8 -3.4,-3.4 .2,-.8 -1.6,-1.2 -1,-.1 -3.4,-3.1 -.1,-2 -2.3,-4 .2,-1.6 -.7,-1.3 .8,-1.5 -.1,-2.4 -2.6,-4.1 -.6,-4.2 -1.6,-1.6 v -1 l -1.2,-.2 -.7,-1.1 -2.4,-1.7 -.9,-.1 -1.9,-1.6 v -1.1 l -2.9,-1.8 -.6,-2.1 -2.6,-2.3 -3.2,-4.4 -3,-1.3 -2.1,-1.8 .2,-1.2 -1.3,-1.4 -1.7,-3.7 -2.4,-1 z m 174.9,138.3 .8,.1 -.6,-4.8 -3.5,-12.3 -.2,-8.1 4.9,-10.5 6.1,-8.2 7.2,-5.1 v -.7 h -.8 l -2.6,1 -3.6,2.3 -.7,1.5 -8.2,11.6 -2.8,7.9 v 8.8 l 3.6,12 z"
       id="path769">
      <title
         id="title767">Texas</title>
    </path>
    <path
       class="ut"
       d="m 233.2,217.9 3.3,-21.9 -47.9,-8.2 -21,109 46.2,8.2 40,6 11.5,-88.3 z"
       id="path773">
      <title
         id="title771">Utah</title>
    </path>
    <path
       class="vt"
       d="m 859.1,102.4 -1.1,3.5 2.1,2.8 -.4,1.7 .1,1.3 -1.1,2.1 -1.4,.4 -.6,1.3 -2.1,1 -.7,1.5 1.4,3.4 -.5,2.5 .5,1.5 -1,1.9 .4,1.9 -1.3,1.9 .2,2.2 -.7,1.1 .7,4.5 .7,1.5 -.5,2.6 .9,1.8 -.2,2.5 -.5,1.3 -.1,1.4 2.1,2.6 -12.4,2.7 -1.1,-1 .5,-2 -3,-14.2 -1.9,-1.5 -.9,1.6 -.9,-2.2 .8,-1.8 -3.1,-6.7 .3,-3.8 .4,-1 -.6,-2 .4,-2.2 -2.2,-2.3 -.5,-3.2 .4,-1.5 -1.4,-.9 .6,-1.9 -.8,-1.7 27.3,-6.9 z"
       id="path777">
      <title
         id="title775">Vermont</title>
    </path>
    <path
       class="va"
       d="m 834.7,265.4 -1.1,2.8 .5,1.1 .4,-1.1 .8,-3.1 z m -34.6,-7 -.7,-1 1,-.1 1,-.9 .4,-1.8 -.2,-.5 .1,-.5 -.3,-.7 -.6,-.5 -.4,-.1 -.5,-.4 -.6,-.6 h -1 l -.6,-.1 -.4,-.4 .1,-.5 -1.7,-.6 -.8,.3 -1.2,-.1 -.7,-.7 -.5,-.2 -.2,-.7 .6,-.8 v -.9 l -1.2,-.2 -1,-.9 -.9,.1 -1.6,-.3 -.4,.7 -.4,1.6 -.5,2.3 -10,-5.2 -.2,.9 .9,1.6 -.8,2.3 .1,2.9 -1.2,.8 -.5,2.1 -.9,.8 -1.4,1.8 -.9,.8 -1,2.5 -2.4,-1.1 -2.3,8.5 -1.3,1.6 -2.8,-.5 -1.3,-1.9 -2.3,-.7 -.1,4.7 -1.4,1.7 .4,1.5 -2.1,2.2 .4,1.9 -3.7,6.3 -1,3.3 1.5,1.2 -1.5,1.9 .1,1.4 -2.3,2 -.7,-1.1 -4.3,3.1 -1.5,-1 -.6,1.4 .8,.5 -.5,.9 -5.5,2.4 -3,-1.8 -.8,1.7 -1.9,1.8 -2.3,.1 -4.4,-2.3 -.1,-1.5 -1.5,-.7 .8,-1.2 -.7,-.6 -4.9,6.6 -2.9,1 -3,3 -.4,2.2 -2.1,1.3 -.1,1.7 -1.4,1.4 -1.8,.5 -.5,1.9 -1,.4 -6.9,4.2 28.9,-3.3 .2,-1 4.6,-.5 -.3,.7 29.4,-3.5 39.4,-7.3 29.1,-6.1 -.6,-1.2 .4,-.1 .9,.9 -.1,-1.4 -.3,-1.9 1.6,1.2 .9,2.1 v -1.3 l -3.4,-5.5 v -1.2 l -.7,-.8 -1.3,.7 .5,1.4 h -.8 l -.4,-1 -.6,.9 -.9,-1.1 -2.1,-.1 -.2,.7 1.5,2.1 -1.4,-.7 -.5,-1 -.4,.8 -.8,.1 -1.5,1.7 .3,-1.6 v -1.4 l -1.5,-.7 -1.8,-.5 -.2,-1.7 -.6,-1.3 -.6,1.1 -1.7,-1 -2,.3 .2,-.9 1.5,-.2 .9,.5 1.7,-.8 .9,.4 .5,1 v .7 l 1.9,.4 .3,.9 .9,.4 .9,1.2 1.4,-1.6 h .6 l -.1,-2.1 -1.3,1 -.6,-.9 1.5,-.2 -1.2,-.9 -1.2,.6 -.1,-1.7 -1.7,.2 -2.2,-1.1 -1.8,-2.2 3.6,2.2 .9,.3 1.7,-.8 -1.7,-.9 .6,-.6 -1,-.5 .8,-.2 -.3,-.9 1.1,.9 .4,-.8 .4,1.3 1.2,.8 .6,-.5 -.5,-.6 -.1,-2.5 -1.1,-.1 -1.6,-.8 .9,-1.1 -2,-.1 -.4,-.5 -1.4,.6 -1.4,-.8 -.5,-1.2 -2.1,-1.2 -2.1,-1.8 -2.2,-1.9 3,1.3 .9,1.2 2.1,.7 2.3,2.5 .2,-1.7 .6,1.3 2.3,.5 v -4 l -.8,-1.1 1.1,.4 .1,-1.6 -3.1,-1.4 -1.6,-.2 -1.3,-.2 .3,-1.2 -1.5,-.3 -.1,-.6 h -1.8 l -.2,.8 -.7,-1 h -2.7 l -1,-.4 -.2,-1 -1.2,-.6 -.4,-1.5 -.6,-.4 -.7,1.1 -.9,.2 -.9,.7 h -1.5 l -.9,-1.3 .4,-3.1 .5,-2.4 .6,.5 z m 21.9,11.6 .9,-.1 0,-.6 -.8,.1 z m 7.5,14.2 -1,2.7 1.2,-1.3 z m -1.8,-15.3 .7,.3 -.2,1.9 -.5,-.5 -1.3,1 1,.4 -1.8,4.4 .1,8.1 1.9,3.1 .5,-1.5 .4,-2.7 -.3,-2.3 .7,-.9 -.2,-1.4 1.2,-.6 -.6,-.5 .5,-.7 .8,1.1 -.2,1.1 -.4,3.9 1.1,-2.2 .4,-3.1 .1,-3 -.3,-2 .6,-2.3 1.1,-1.8 .1,-2.2 .3,-.9 -4.6,1.6 -.7,.8 z"
       id="path781">
      <title
         id="title779">Virginia</title>
    </path>
    <path
       class="wa"
       d="m 161.9,83.6 .7,4 -1.1,4.3 -30.3,-7.3 -2.8,1 -5.4,-.9 -1.8,-.9 -1.5,1.2 -3.3,-.4 -4.5,.5 -.9,.7 -4.2,-.4 -.8,-1.6 -1.2,-.2 -4.4,1.3 -1.6,-1.1 -2.2,.8 -.2,-1.8 -2.3,-1.2 -1.5,-.2 -1,-1.1 -3,.3 -1.2,-.8 h -1.2 l -1.2,.9 -5.5,.7 -6.6,-4.2 1.1,-5.6 -.4,-4.1 -3.2,-3.7 -3.7,.1 -.4,-1.1 .4,-1.2 -.7,-.8 -1,.1 -2.1,-1.5 -1.2,.4 -2,-.1 -.7,-1.5 -1.6,-.3 2.5,-7.5 -.7,6 .5,.5 v -2 l .8,-.2 1.1,2.3 -.5,-2.2 1.2,-4.2 1.8,.4 -1.1,-2 -1,.3 -1.5,-.4 .2,-4.2 .2,1.5 .9,.5 .6,-1.6 h 3.2 l -2.2,-1.2 -1.7,-1.9 -1.4,1.6 1.2,-3.1 -.3,-4.6 -.2,-3.6 .9,-6.1 -.5,-2 -1.4,-2.1 .1,-4 .4,-2.7 2,-2.3 -.7,-1.4 .2,-.6 .9,.1 7.8,7.6 4.7,1.9 5.1,2.5 3.2,-.1 .2,3 1,-1.6 h .7 l .6,2.7 .5,-2.6 1.4,-.2 .5,.7 -1.1,.6 .1,1.6 .7,-1.5 h 1.1 l -.4,2.6 -1.1,-.8 .4,1.4 -.1,1.5 -.8,.7 -2.5,2.9 1.2,-3.4 -1.6,.4 -.4,2.1 -3.8,2.8 -.4,1 -2.1,2.2 -.1,1 h 2.2 l 2.4,-.2 .5,-.9 -3.9,.5 v -.6 l 2.6,-2.8 1.8,-.8 1.9,-.2 1,-1.6 3,-2.3 v -1.4 h 1.1 l .1,4 h -1.5 l -.6,.8 -1.1,-.9 .3,1.1 v 1.7 l -.7,.7 -.3,-1.6 -.8,.8 .7,.6 -.9,1.1 h 1.3 l .7,-.5 .1,2 -1,1.9 -.9,1 -.1,1.8 -1,-.2 -.2,-1.4 .9,-1.1 -.8,-.5 -.8,.7 -.7,2.2 -.8,.9 -.1,-2 .8,-1.1 -.2,-1.1 -1.2,1.2 .1,2.2 -.6,.4 -2.1,-.4 -1.3,1.2 2.2,-.6 -.2,2.2 1,-1.8 .4,1.4 .5,-1 .7,1.8 h .7 l .7,-.8 .6,-.1 2,-1.9 .2,-1.2 .8,.6 .3,.9 .7,-.3 .1,-1.2 h 1.3 l .2,-2.9 -.1,-2.7 .9,.3 -.7,-2.1 1.4,-.8 .2,-2.4 2.3,-2.2 1,.1 .3,-1.4 -1.2,-1.4 -.1,-3.5 -.8,.9 .7,2.9 -.6,.1 -.6,-1.9 -.6,-.5 .3,-2.3 1.8,-.1 .3,.7 .3,-1.6 -1.6,-1.7 -.6,-1.6 -.2,2 .9,1.1 -.7,.4 -1,-.8 -1.8,1.3 1.5,.5 .2,2.4 -.3,1.8 .9,-1.3 1.4,2.3 -.4,1.9 h -1.5 v -1.2 l -1.5,-1.2 .5,-3 -1.9,-2.6 2.7,-3 .6,-4.1 h .9 l 1.4,3.2 v -2.6 l 1.2,.3 v -3.3 l -.9,-.8 -1.2,2.5 -1,-3 1.3,-.1 -1.5,-4.9 1.9,-.6 25.4,7.5 31.7,8 23.6,5.5 z m -78.7,-39.4 h .5 l .1,.8 -.5,.3 .1,.6 -.7,.4 -.2,-.9 .5,-.4 z m 5,-4.3 -1.2,1.9 -.1,.8 .4,.2 .5,-.6 1.1,.1 z m -.4,-21.6 .5,.6 1.3,-.3 .2,-1 1.2,-1.8 -1,-.4 -.7,1.6 -.1,-1.6 -1.1,.2 -.7,1.4 z m 3.2,-5.5 .7,1.5 -.9,.2 -.8,.4 -.2,-2.4 z m -2.7,-1.6 -1.1,-.2 .5,1.4 z m -1,2.5 .8,.4 -.4,1.1 1.7,-.5 -.2,-2.2 -.9,-.2 z m -2.7,-.4 .3,2.7 1.6,1.3 .6,-1.9 -1.1,-2.2 z m 1.9,-1.1 -1.1,-1 -.9,.1 1.8,1.5 z m 3.2,-7 h -1.2 v .8 l 1.2,.6 z m -.9,32.5 .4,-2.7 h -1.1 l -.2,1.9 z"
       id="path785">
      <title
         id="title783">Washington</title>
    </path>
    <path
       class="wv"
       d="m 723.4,297.5 -.8,1.2 1.5,.7 .1,1.5 4.4,2.3 2.3,-.1 1.9,-1.8 .8,-1.7 3,1.8 5.5,-2.4 .5,-.9 -.8,-.5 .6,-1.4 1.5,1 4.3,-3.1 .7,1.1 2.3,-2 -.1,-1.4 1.5,-1.9 -1.5,-1.2 1,-3.3 3.7,-6.3 -.4,-1.9 2.1,-2.2 -.4,-1.5 1.4,-1.7 .1,-4.7 2.3,.7 1.3,1.9 2.8,.5 1.3,-1.6 2.3,-8.5 2.4,1.1 1,-2.5 .9,-.8 1.4,-1.8 .9,-.8 .5,-2.1 1.2,-.8 -.1,-2.9 .8,-2.3 -.9,-1.6 .2,-.9 10,5.2 .5,-2.3 .4,-1.6 .4,-.7 -.9,-.4 .2,-1.6 -1,-.5 -.2,-.7 h -.7 l -.8,-1.2 .2,-1 -2.6,.4 -2.2,-1.6 -1.4,.3 -.9,1.4 h -1.3 l -1.7,2.9 -3.3,.4 -1.9,-1 -2.6,3.8 -2.2,-.3 -3.1,3.9 -.9,1.6 -1.8,1.6 -1.7,-11.4 -17.4,2.9 -3.2,-19.7 -2.2,1.2 1.4,2.1 -.1,2.2 .6,2 -1.1,3.4 -.1,5.4 -1,3.6 .5,1.1 -.4,2.2 -1.1,.5 -2,3.3 -1.8,2 h -.6 l -1.8,1.7 -1.3,-1.2 -1.5,1.8 -.3,1.2 h -1.3 l -1.3,2.2 .1,2.1 -1,.5 1.4,1.1 v 1.9 l -1,.2 -.7,.8 -1,.5 -.6,-2.1 -1.6,-.5 -1,2.3 -.3,2.2 -1.1,1.3 1.3,3.6 -1.5,.8 -.4,3.5 h -1.5 l -3.2,1.4 -.1,1.1 .6,1 -.6,3.6 1.9,1.6 .8,1.1 1,.6 -.1,.9 4.4,5.6 h 1.4 l 1.5,1.8 1.2,.3 1.4,-.1 z"
       id="path789">
      <title
         id="title787">West Virginia</title>
    </path>
    <path
       class="wi"
       d="m 611,144 -2.9,.8 .2,2.3 -2.4,3.4 -.2,3.1 .6,.7 .8,-.7 .5,-1.6 2,-1.1 1.6,-4.2 3.5,-1.1 .8,-3.3 .7,-.9 .4,-2.1 1.8,-1.1 v -1.5 l 1,-.9 1.4,.1 v 2 l -1,.1 .5,1.2 -.7,2.2 -.6,.1 -1.2,4.5 -.7,.5 -2.8,7.2 -.3,4.2 .6,2 .1,1.3 -2.4,1.9 .3,1.9 -.9,3.1 .3,1.6 .4,3.7 -1.1,4.1 -1.5,5 1,1.5 -.3,.3 .8,1.7 -.5,1.1 1.1,.9 v 2.7 l 1.3,1.5 -.4,3 .3,4 -45.9,2.8 -1.3,-2.8 -3.3,-.7 -2.7,-1.5 -2,-5.5 .1,-2.5 1.6,-3.3 -.6,-1.1 -2.1,-1.6 -.2,-2.6 -1.1,-4.5 -.2,-3 -2.2,-3 -2.8,-.7 -5.2,-3.6 -.6,-3.3 -6.3,-3.1 -.2,-1.3 h -3.3 l -2.2,-2.6 -2,-1.3 .7,-5.1 -.9,-1.6 .5,-5.4 1,-1.8 -.3,-2.7 -1.2,-1.3 -1.8,-.3 v -1.7 l 2.8,-5.8 5.9,-3.9 -.4,-13 .9,.4 .6,-.5 .1,-1.1 .9,-.6 1.4,1.2 .7,-.1 h 2.6 l 6.8,-2.6 .3,-1 h 1.2 l .7,-1.2 .4,.8 1.8,-.9 1.8,-1.7 .3,.5 1,-1 2.2,1.6 -.8,1.6 -1.2,1.4 .5,1.5 -1.4,1.6 .4,.9 2.3,-1.1 v -1.4 l 3.3,1.9 1.9,.7 1.9,.7 3,3.8 17,3.8 1.4,1 4,.8 .7,.5 2.8,-.2 4.9,.8 1.4,1.5 -1,1 .8,.8 3.8,.7 1.2,1.2 .1,4.4 -1.3,2.8 2,.1 1,-.8 .9,.8 -1.1,3.1 1,1.6 1.2,.3 z m -49.5,-37.3 -.5,.1 -1.5,1.6 .2,.5 1.5,-.6 v -.6 l .9,-.3 z m 1.6,-1.1 -1,.3 -.2,.7 .9,-.1 z m -1.3,-1.6 -.2,.9 h 1.7 l .6,-.4 .1,-1 z m 2.8,-3 -.3,1.9 1.2,-.5 .1,-1.4 z m 58.3,31.9 -2,.3 -.4,1.3 1.3,1.7 z"
       id="path793">
      <title
         id="title791">Wisconsin</title>
    </path>
    <path
       class="wy"
       d="m 355.3,143.7 -51,-5.3 -57.3,-7.9 -2,10.7 -8.5,54.8 -3.3,21.9 32.1,4.8 44.9,5.7 37.5,3.4 3.7,-44.2 z"
       id="path797">
      <title
         id="title795">Wyoming</title>
    </path>
    <path
       class="dc"
       d="m 803.5,252 -2.6,-1.8 -1,1.7 .5,.4 .4,.1 .6,.5 .3,.7 -.1,.5 .2,.5 z"
       id="path801">
      <title
         id="title799">District of Columbia</title>
    </path>
  </g>
  <g
     class="borders"
     fill="none"
     id="g1019">
    <path
       class="al-fl"
       d="m 687.6,447.4 -48.8,5.1 -.5,2.9 2.5,2.8 1.7,.7 .9,1.2 -.4,7.3 -1.1,.6"
       id="path805" />
    <path
       class="al-ga"
       d="m 666.6,361.1 12.9,45.8 2.9,6.1 1.8,1.9 v 3.2 l 1.7,1 .2,1.1 -2.2,3.8 -.3,3.7 -.5,2.6 2.4,5.7 -.6,6.3 .5,1.4 1.5,1.5 .7,2.2"
       id="path807" />
    <path
       class="ar-mo"
       d="m 591.7,344.9 -11.2,.8 2.8,-5.1 1.7,-1.5 v -2.2 l -1.6,-2.5 -39.8,2 -39.1,.7"
       id="path815" />
    <path
       class="ar-ms"
       d="m 569,412.9 1.2,-1.5 .5,-3 -1.5,-2.3 -.5,-2.2 .9,-.7 v -.8 l -1.7,-1.1 -.1,-.7 1.6,-.9 -1.2,-1.1 1.7,-7.1 3.4,-1.6 0,-.8 -1.1,-1.4 2.9,-5.4 h 1.9 l 1.5,-1.2 -.3,-5.2 3.1,-4.5 1.8,-.6 -.5,-3.1"
       id="path817" />
    <path
       class="ar-tn"
       d="m 582.6,367.7 1.6,-.7 .9,-2.2 1.2,.5 .7,-1 -.8,-.7 .3,-1.5 -1.1,-.9 .6,-1 -.1,-1.5 -1.1,-.1 .8,-.8 1.3,.8 .3,-1.4 -.4,-1.1 .1,-.7 2,.6 -.4,-1.5 1.6,-1.3 -.5,-.9 -1.1,.1 -.6,-.9 .9,-.9 1.6,-.2 .5,-.8 1.4,-.2 -.1,-.8 -.9,-.9 0,-.5 h 1.5 l .4,-.7 -1.4,-1 -.1,-.6"
       id="path821" />
    <path
       class="az-ca"
       d="m 149,338.1 -.9,2.1 1.3,3.4 1.4,1.8 1.2,5.8 2.3,2.5 .4,1.9 -1.3,1.3 -4.8,1.7 -2.4,3.6 -1.6,7 -2.4,3.2 -1.6,.3 -1.1,6.9 1.1,1.6 1.8,.2 1,1.6 -.8,2.4 -3,2.2 -2.2,-.1"
       id="path825" />
    <path
       class="ca-nv"
       d="m 93.9,166.5 -16.4,63.1 1.1,3.5 70.4,105"
       id="path833" />
    <path
       class="co-ks"
       d="m 379.4,256.3 -4.8,67"
       id="path837" />
    <path
       class="co-ne"
       d="m 347.7,231.8 33.1,2.4 -1.4,22.1"
       id="path839" />
    <path
       class="co-ok"
       d="m 358.1,322.3 16.5,1"
       id="path843" />
    <path
       class="ct-ny"
       d="m 846.6,194.7 -1.7,-2.2 3.5,-3.4 -1.8,-1.5 -2.8,-16.3"
       id="path851" />
    <path
       class="de-nj"
       d="m 823.8,227.2 -1,2.2 -.3,2.1"
       id="path861" />
    <path
       class="de-pa"
       d="m 817.9,230.1 1.2,-2.1 1.5,-1.1 1.6,-.3 1.6,.6"
       id="path863" />
    <path
       class="ga-tn"
       d="m 666.6,361.1 22.9,-2.9"
       id="path871" />
    <path
       class="ia-il"
       d="m 556.8,249.7 .7,-.7 .1,-2.3 -.7,-.9 1,-1.5 1.8,-.6 .9,-.3 1,-1.2 0,-2.4 1.7,-2.4 .5,-.5 .1,-3.5 -.9,-1.4 -1,-.3 -1.1,-1.6 1,-4 3,-.8 h 2.4 l 4.2,-1.8 1.7,-2.2 .1,-2.4 1.1,-1.3 1.3,-3.2 -.1,-2.6 -2.8,-3.5 -1.2,0 -.9,-1.1 .2,-1.6 -1.7,-1.7 -2.5,-1.3 .5,-.6"
       id="path873" />
    <path
       class="ia-wi"
       d="m 567.2,202 -1.3,-2.8 -3.3,-.7 -2.7,-1.5 -2,-5.5 .1,-2.5 1.6,-3.3 -.6,-1.1 -2.1,-1.6 -.2,-2.6"
       id="path883" />
    <path
       class="id-or"
       d="m 140.9,177.7 8.5,-37.3 2.9,-5.8 .4,-2.1 .8,-.9 -.9,-2 -2.9,-1.2 .2,-4.2 4,-5.8 2.5,-.8 1.6,-2.3 -.1,-1.6 1.8,-1.6 3.2,-5.5 4.2,-4.8 -.5,-3.2 -3.5,-3.1 -1.6,-3.6"
       id="path889" />
    <path
       class="id-wa"
       d="m 174.6,27.5 -12.7,56.1 .7,4 -1.1,4.3"
       id="path893" />
    <path
       class="il-ky"
       d="m 599.9,322.5 -.3,-1.8 4,-3.7 6.9,3 1.5,-.3 .4,-2.4 -1.7,-1.8 .4,-3.3 1,-.5 1.2,.6 .6,-1.2 3.7,-.6 .1,-.9 -1.5,-2.2 -.1,-1.1 2.2,-2.7 v -.9"
       id="path899" />
    <path
       class="il-mo"
       d="m 599.9,322.5 -2.8,0 -1.4,-1.5 -1.8,-3.8 v -1.9 l .8,-.6 .1,-1.3 -1.7,-1.9 -.9,-2.5 -2.7,-4.1 -4.8,-1.3 -7.4,-7.1 -.4,-2.4 2.8,-7.6 -.4,-1.9 1.2,-1.1 v -1.3 l -2.8,-1.5 -3,-.7 -3.4,1.2 -1.3,-2.3 .6,-1.9 -.7,-2.4 -8.6,-8.4 -2.2,-1.5 -2.5,-5.9 -1.2,-5.4 1.4,-3.7"
       id="path901" />
    <path
       class="in-ky"
       d="m 618.3,302.7 1.1,.8 .6,-1 -.7,-1.7 4.6,-.5 .2,1.2 1.1,.2 .4,-.9 -.6,-1.3 .3,-.8 1.3,.8 1.7,-.4 1.7,.6 3.4,2.1 1.8,-2.8 3.5,-2.2 3,3.3 1.6,-2.1 .3,-2.7 3.8,-2.3 .2,1.3 1.9,1.2 3,-.2 1.2,-.7 .1,-3.4 2.5,-3.7 4.6,-4.4 -.1,-1.7 1.2,-3.8 2.2,1 6.7,-4.5 -.4,-1.7 -1.5,-2.1 1,-1.9"
       id="path905" />
    <path
       class="ks-ok"
       d="m 374.6,323.3 67.7,2.9 62,.1"
       id="path915" />
    <path
       class="ky-mo"
       d="m 596.7,333.5 1,-2.7 1.4,.9 .7,-.4 1.2,-4.1 -1,-1 1,-2 .2,-.9 -1.3,-.8 m -5.8,11.3 -.7,-.7 .2,-1 h 1.1 l .7,.7 -.3,1"
       id="path917" />
    <path
       class="ky-oh"
       d="m 670,268.4 1.3,.5 2.2,.1 1.9,-.8 2.9,1.2 2.2,3.4 v 1 l 4.1,.7 2.3,-.2 1.9,2.1 2.2,.2 v -1 l 1.9,-.8 3,.8 1.2,.8 1.3,-.7 h .9 l .6,-1.7 3.4,-1.8 .5,.8 .8,2.9 3.5,1.4 1.2,2.1"
       id="path919" />
    <path
       class="ky-va"
       d="m 697.7,321.1 6.9,-4.2 1,-.4 .5,-1.9 1.8,-.5 1.4,-1.4 .1,-1.7 2.1,-1.3 .4,-2.2 3,-3 2.9,-1 4.9,-6.6"
       id="path923" />
    <path
       class="ky-wv"
       d="m 709.3,279.4 -.1,1.1 .6,1 -.6,3.6 1.9,1.6 .8,1.1 1,.6 -.1,.9 4.4,5.6 h 1.4 l 1.5,1.8 1.2,.3 1.4,-.1"
       id="path925" />
    <path
       class="la-ms"
       d="m 569,412.9 -.6,1.4 1.6,7.1 1.2,1 -.5,1.7 2.4,2.5 v 3.3 l -2,0 1.8,2.5 -6,8.4 -2.4,4.8 -1.7,11.9 36,-2 -.1,1.4 -1,1.4 -.9,4.6 4.8,6.8 -.3,1.3 1.2,1.8 .6,.7"
       id="path927" />
    <path
       class="ma-ny"
       d="m 843.8,171.3 -.7,-1 .5,-15"
       id="path933" />
    <path
       class="md-pa"
       d="m 757.4,241.9 60.5,-11.8"
       id="path939" />
    <path
       class="mi-wi"
       d="m 565.6,112.3 1.9,.7 3,3.8 17,3.8 1.4,1 4,.8 .7,.5 2.8,-.2 4.9,.8 1.4,1.5 -1,1 .8,.8 3.8,.7 1.2,1.2 .1,4.4 -1.3,2.8 2,.1 1,-.8 .9,.8 -1.1,3.1 1,1.6 1.2,.3"
       id="path949" />
    <path
       class="mn-wi"
       d="m 556.7,180.4 -1.1,-4.5 -.2,-3 -2.2,-3 -2.8,-.7 -5.2,-3.6 -.6,-3.3 -6.3,-3.1 -.2,-1.3 -3.3,0 -2.2,-2.6 -2,-1.3 .7,-5.1 -.9,-1.6 .5,-5.4 1,-1.8 -.3,-2.7 -1.2,-1.3 -1.8,-.3 v -1.7 l 2.8,-5.8 5.9,-3.9 -.4,-13 .9,.4 .6,-.5 .1,-1.1 .9,-.6 1.4,1.2 .7,-.1"
       id="path955" />
    <path
       class="mo-ok"
       d="m 504.3,326.3 .2,10.8"
       id="path959" />
    <path
       class="mo-tn"
       d="m 591.7,344.9 1,-2 1.2,-.5 v -.7 l -1.2,-1.1 -.6,-1 1.7,.2 .8,-.7 -1.4,-1.5 1.4,-.5 .1,-1 -.6,-1 0,-1.3 m 1,0 .8,.7 .8,-1"
       id="path961" />
    <path
       class="mt-nd"
       d="m 362.5,56.3 -5.2,66.7"
       id="path965" />
    <path
       class="mt-sd"
       d="m 357.3,123 -2,20.7"
       id="path967" />
    <path
       class="nc-tn"
       d="m 731.1,317 0,5.2 -1.5,-.1 -1.4,1.2 -2.4,5.2 -2.6,-1.1 -3.5,2.5 -.7,2.1 -1.5,1.2 -.8,-.8 -.1,-1.5 -.8,-.2 -4,3.3 -.6,3.4 -4.7,2.4 -.5,1.2 -3.2,2.6 -3.6,.5 -4.6,3 -.8,4.1 -1.3,.9 -1.5,-.1 -1.4,1.3 -.1,4.9"
       id="path973" />
    <path
       class="ne-wy"
       d="m 347.7,231.8 3.7,-44.2"
       id="path981" />
    <path
       class="nm-ok"
       d="m 358.1,322.3 -.6,10.6"
       id="path989" />
    <path
       class="nm-tx"
       d="m 284.3,431.2 -2,-2.2 .3,-3 34.4,3.6 31.8,2.6 7.9,-99.3 .8,0"
       id="path991" />
    <path
       class="nv-or"
       d="m 93.9,166.5 47,11.2"
       id="path993" />
    <path
       class="ny-vt"
       d="m 843.6,155.3 -1.1,-1 .5,-2 -3,-14.2 -1.9,-1.5 -.9,1.6 -.9,-2.2 .8,-1.8 -3.1,-6.7 .3,-3.8 .4,-1 -.6,-2 .4,-2.2 -2.2,-2.3 -.5,-3.2 .4,-1.5 -1.4,-.9 .6,-1.9 -.8,-1.7"
       id="path999" />
    <path
       class="oh-pa"
       d="m 736.8,225.1 -4.9,-29.9"
       id="path1001" />
    <path
       class="oh-wv"
       d="m 709.3,279.4 3.2,-1.4 h 1.5 l .4,-3.5 1.5,-.8 -1.3,-3.6 1.1,-1.3 .3,-2.2 1,-2.3 1.6,.5 .6,2.1 1,-.5 .7,-.8 1,-.2 v -1.9 l -1.4,-1.1 1,-.5 -.1,-2.1 1.3,-2.2 h 1.3 l .3,-1.2 1.5,-1.8 1.3,1.2 1.8,-1.7 h .6 l 1.8,-2 2,-3.3 1.1,-.5 .4,-2.2 -.5,-1.1 1,-3.6 .1,-5.4 1.1,-3.4 -.6,-2 .1,-2.2 -1.4,-2.1 2.2,-1.2"
       id="path1003" />
    <path
       class="pa-wv"
       d="m 736.8,225.1 3.2,19.7 17.4,-2.9"
       id="path1009" />
    <path
       class="sd-wy"
       d="m 351.4,187.6 3.9,-43.9"
       id="path1011" />
    <path
       class="tn-va"
       d="m 697.7,321.1 28.9,-3.3 .2,-1 4.6,-.5 -.3,.7"
       id="path1013" />
  </g>
  <g
     inkscape:groupmode="layer"
     id="layer1"
     inkscape:label="New"
     style="display:inline">
    <path
       style="fill:none;stroke:#000000;stroke-width:1px;stroke-linecap:butt;stroke-linejoin:miter;stroke-opacity:1"
       d="M 135.06004,388.4285 96.84538,383.7171 42.92606,319.32801 15.181168,179.03308 76.952815,3.1409312 173.79819,27.744893 141.34191,177.9861 93.704448,166.46936 77.476304,230.85845 153.38214,347.0729 Z"
       id="path3213" />
    <path
       style="fill:none;stroke:#000000;stroke-width:1px;stroke-linecap:butt;stroke-linejoin:miter;stroke-opacity:1"
       d="m 465.66417,60.706616 8.88389,148.805244 27.39201,74.77278 20.72909,202.10862 -71.07116,48.12109 3.70162,35.53558 -38.49688,-13.32584 -36.2759,-68.10986 -57.74532,-2.22097 -36.2759,-51.82273 -85.87766,-4.44194 -65.56792,-41.70009 18.3221,-41.3556 L 77.476304,230.85845 93.9,166.5 l 47.44191,11.4861 32.45628,-150.241207 187.48021,29.2601 z"
       id="path3215" />
    <path
       style="fill:none;stroke:#000000;stroke-width:1px;stroke-linecap:butt;stroke-linejoin:miter;stroke-opacity:1"
       d="m 522.66916,486.39326 -15.36173,-149.36049 86.61797,-3.14638 75.61644,-63.24282 38.73815,7.85233 31.9328,-34.02675 39.26164,-7.32884 22.51001,15.70465 -2.09395,11.51675 30.88582,9.4228 -2.61744,18.84558 11.51675,27.22141 -10.99326,21.98652 -67.00654,72.24141 -7.85233,32.97978 42.92606,77.99979 -1.04697,36.12071 -16.22815,4.7114 -43.97303,-54.44281 3.66442,-25.12745 -28.79187,-19.36907 -108.88562,1.57046 1.57047,31.9328 z"
       id="path3377" />
    <path
       style="fill:none;stroke:#000000;stroke-width:1px;stroke-linecap:butt;stroke-linejoin:miter;stroke-opacity:1"
       d="M 465.66417,60.706616 474.6,210.5 l 27.34007,73.78464 5.36736,52.74813 86.61797,-3.14638 75.61644,-63.24282 38.73815,7.85233 31.9328,-34.02675 -8.37581,-49.73141 -27.22141,20.41605 -18.3221,-9.42279 14.65768,-28.79187 L 670.58882,114.64399 644.93788,99.462822 611.9581,109.4091 571.64948,80.093746 Z"
       id="path3379" />
    <path
       style="fill:none;stroke:#000000;stroke-width:1px;stroke-linecap:butt;stroke-linejoin:miter;stroke-opacity:1"
       d="m 830.77631,273.78451 -30.88582,-9.4228 2.09395,-11.51675 -22.51001,-15.70465 -39.26164,7.32884 -8.37581,-49.73141 59.94017,-53.33574 15.17665,-30.35331 55.52435,-12.585519 16.28714,-58.485643 19.98876,-1.850812 23.69039,50.712235 -35.53558,35.165419 -2.59114,29.98314 11.47503,14.43633 -48.86142,26.28153 -2.22097,36.64606 -11.47503,13.69601 z"
       id="path3381" />
  </g>
  <path
     class="separator1"
     fill="none"
     d="m 215,493 v 55 l 36,45 m -251,-168 h 147 l 68,68 h 85 l 54,54 v 46"
     id="path1025" />
  <metadata
     id="metadata985">
    <rdf:RDF>
      <cc:Work
         rdf:about="">
        <dc:title>Blank map of the United States, territories not included</dc:title>
      </cc:Work>
    </rdf:RDF>
  </metadata>
</svg>
