<?xml version="1.0" encoding="UTF-8" standalone="no"?>
<!-- Created with Inkscape (http://www.inkscape.org/) -->

<svg
   width="250mm"
   height="250mm"
   viewBox="0 0 250 250"
   version="1.1"
   id="svg8221"
   inkscape:version="1.1.1 (3bf5ae0d25, 2021-09-20)"
   sodipodi:docname="US_simple.svg"
   xmlns:inkscape="http://www.inkscape.org/namespaces/inkscape"
   xmlns:sodipodi="http://sodipodi.sourceforge.net/DTD/sodipodi-0.dtd"
   xmlns="http://www.w3.org/2000/svg"
   xmlns:svg="http://www.w3.org/2000/svg">
  <sodipodi:namedview
     id="namedview8223"
     pagecolor="#ffffff"
     bordercolor="#666666"
     borderopacity="1.0"
     inkscape:pageshadow="2"
     inkscape:pageopacity="0.0"
     inkscape:pagecheckerboard="0"
     inkscape:document-units="mm"
     showgrid="false"
     width="250mm"
     inkscape:snap-global="false"
     inkscape:zoom="0.51906082"
     inkscape:cx="457.55717"
     inkscape:cy="511.50075"
     inkscape:window-width="1920"
     inkscape:window-height="1009"
     inkscape:window-x="-8"
     inkscape:window-y="-8"
     inkscape:window-maximized="1"
     inkscape:current-layer="layer1" />
  <defs
     id="defs8218" />
  <g
     inkscape:label="Layer 1"
     inkscape:groupmode="layer"
     id="layer1">
    <path
       style="display:inline;fill:#d9d9d9;stroke:#ffffff;stroke-width:2;stroke-linecap:butt;stroke-linejoin:miter;stroke-opacity:1;fill-opacity:1;stroke-miterlimit:4;stroke-dasharray:none"
       d="M 38.717439,148.28027 43.433613,136.69615 23.211688,106.36326 28.231523,90.998898 39.168464,91.481304 48.83536,53.315331 23.211688,47.913584 5.4828759,95.00574 l 9.4184311,36.84269 10.919141,8.07808 1.823442,6.8806 z"
       id="path8073"
       sodipodi:nodetypes="cccccccccccc" />
    <path
       style="display:inline;fill:#d9d9d9;stroke:#ffffff;stroke-width:2;stroke-linecap:butt;stroke-linejoin:miter;stroke-opacity:1;fill-opacity:1;stroke-miterlimit:4;stroke-dasharray:none"
       d="m 48.83536,53.315331 49.65034,7.416699 -3.084796,45.46483 9.777666,3.42193 -3.49141,21.75699 -3.764073,-0.26458 -4.394449,28.9214 -13.907915,-0.55186 -10.345023,2.05754 v 0 l -14.402152,-1.89744 -16.156109,-11.36057 4.716174,-11.58412 -20.221925,-30.33289 5.019835,-15.364362 10.936941,0.482406 z"
       id="path8075"
       sodipodi:nodetypes="ccccccccccccccccc" />
    <path
       style="display:inline;fill:#d9d9d9;stroke:#ffffff;stroke-width:2;stroke-linecap:butt;stroke-linejoin:miter;stroke-opacity:1;fill-opacity:1;stroke-miterlimit:4;stroke-dasharray:none"
       d="m 98.4857,60.73203 36.22359,1.447707 21.19147,3.601165 9.54669,7.367289 10.23604,-2.288642 4.75221,5.236923 -5.03563,2.203892 -2.87152,-1.251358 -4.59976,1.094452 -3.9058,3.675864 -12.96995,-7.72804 -6.37129,1.385065 -1.66208,11.634533 11.08051,16.06674 -3.87818,11.63453 12.05474,14.89675 -5.37161,5.15876 -20.90151,-2.69813 -34.31646,-0.79375 3.49141,-21.75699 -9.777666,-3.42193 z"
       id="path8077"
       sodipodi:nodetypes="cccccccccccccccccccccc" />
    <path
       style="display:inline;fill:#d9d9d9;stroke:#ffffff;stroke-width:2;stroke-linecap:butt;stroke-linejoin:miter;stroke-opacity:1;fill-opacity:1;stroke-miterlimit:4;stroke-dasharray:none"
       d="m 97.923087,131.1112 38.080533,1.05833 20.90151,2.69813 -0.63621,13.16764 -4.69359,9.42538 0.30875,8.87583 9.69544,0.27701 0.0296,5.57485 -20.44608,0.70533 -17.25719,11.17162 -1.38506,12.46557 -8.44889,-1.24656 -11.62443,-21.84428 -13.029703,2.73041 -9.796994,-16.68972 13.907915,0.55186 z"
       id="path8079"
       sodipodi:nodetypes="ccccccccccccccccc" />
    <path
       style="display:inline;fill:#d9d9d9;stroke:#ffffff;stroke-width:2;stroke-linecap:butt;stroke-linejoin:miter;stroke-opacity:1;fill-opacity:1;stroke-miterlimit:4;stroke-dasharray:none"
       d="m 162.27674,129.7089 17.80646,-11.35062 10.30564,1.71711 3.32415,12.18856 -8.58739,8.31038 -5.12473,0.83103 2.77012,22.16102 -10.38797,1.10805 0.83103,7.06382 -11.60498,0.45012 -0.0296,-5.57485 -9.69544,-0.27701 -0.30875,-8.87583 4.69359,-9.42538 0.63621,-13.16764 z"
       id="path8081"
       sodipodi:nodetypes="cccccccccccccccc" />
    <path
       style="display:inline;fill:#d9d9d9;stroke:#ffffff;stroke-width:2;stroke-linecap:butt;stroke-linejoin:miter;stroke-opacity:1;fill-opacity:1;stroke-miterlimit:4;stroke-dasharray:none"
       d="m 162.27674,129.7089 -12.05474,-14.89675 3.87818,-11.63453 -11.08051,-16.06674 1.60936,-11.800308 6.6675,-1.058333 12.72646,7.567083 -0.22737,17.757126 3.60117,3.878182 4.98623,-3.04714 -2.96588,-12.249286 5.736,-9.911731 6.78681,2.493113 -0.35899,7.038634 5.64209,1.107829 -0.0199,6.535211 -3.04714,5.67876 3.73967,2.63162 6.83598,-5.453634 4.38304,11.409404 -8.73924,10.62879 -10.29229,-1.95792 z"
       id="path8083"
       sodipodi:nodetypes="ccccccccccccccccccccccc" />
    <path
       style="display:inline;fill:#d9d9d9;stroke:#ffffff;stroke-width:2;stroke-linecap:butt;stroke-linejoin:miter;stroke-opacity:1;fill-opacity:1;stroke-miterlimit:4;stroke-dasharray:none"
       d="m 173.21405,171.73825 -0.83103,-7.06382 10.38797,-1.10805 -2.77012,-22.16102 5.12473,-0.83103 8.58739,-8.31038 -3.32415,-12.18856 8.7259,-10.38798 20.91446,-3.46266 4.42924,10.11168 -3.32119,8.17116 3.04714,8.58739 -18.14433,18.14433 -4.08825,13.8426 12.12162,19.67594 0.55402,8.58739 -5.12473,2.35461 -9.97246,-11.35752 -2.0776,-10.52648 -9.00291,-3.87818 z"
       id="path8198"
       sodipodi:nodetypes="ccccccccccccccccccccc" />
    <path
       style="display:inline;fill:#d9d9d9;stroke:#ffffff;stroke-width:2;stroke-linecap:butt;stroke-linejoin:miter;stroke-opacity:1;fill-opacity:1;stroke-miterlimit:4;stroke-dasharray:none"
       d="m 93.849922,196.53089 -2.56313,-4.23172 -7.132314,-5.04821 -8.171874,-4.15519 -8.587393,-3.73967 -3.739674,1.66208 1.662078,2.35461 9.141418,3.73967 6.509798,3.87817 3.462657,4.84773 2.077599,4.84772 4.570708,-0.69253 z"
       id="path10798"
       sodipodi:nodetypes="ccccccccccccc" />
    <path
       style="display:inline;fill:#d9d9d9;stroke:#ffffff;stroke-width:2;stroke-linecap:butt;stroke-linejoin:miter;stroke-opacity:1;fill-opacity:1;stroke-miterlimit:4;stroke-dasharray:none"
       d="m 61.327664,198.87372 -9.083407,-11.15097 -7.221958,-2.52685 0.05737,-19.87461 -12.526319,-4.37652 -9.411967,2.8095 -6.463959,17.23723 6.186946,8.75711 -7.619537,4.37652 0.239328,4.09375 13.816224,-1.93275 2.540746,-5.70648 7.672829,-2.67507 9.004604,4.01261 5.96546,8.77826 4.645533,1.16396 z"
       id="path10800"
       sodipodi:nodetypes="ccccccccccccccccc" />
    <path
       style="display:inline;fill:#d9d9d9;stroke:#ffffff;stroke-width:2;stroke-linecap:butt;stroke-linejoin:miter;stroke-opacity:1;fill-opacity:1;stroke-miterlimit:4;stroke-dasharray:none"
       d="m 194.7317,98.278006 8.53823,-10.336088 8.86441,-2.631623 3.32415,-9.418431 6.78681,-1.939089 4.57071,22.853547 -1.52357,4.847718 1.66207,4.70922 -4.82902,4.34856 -2.09629,-4.48707 -20.91446,3.46266 z"
       id="path28478"
       sodipodi:nodetypes="cccccccccccc" />
    <path
       style="display:inline;fill:#d9d9d9;stroke:#ffffff;stroke-width:2;stroke-linecap:butt;stroke-linejoin:miter;stroke-opacity:1;fill-opacity:1;stroke-miterlimit:4;stroke-dasharray:none"
       d="m 222.33716,74.146405 9.32657,-2.548236 2.49312,-14.958685 5.81726,-0.831038 7.34084,13.573621 -10.8035,8.587393 -0.27701,7.894865 3.60117,4.709213 -13.0196,6.232784 z"
       id="path28570"
       sodipodi:nodetypes="cccccccccc" />
  </g>
</svg>
