<?xml version="1.0" encoding="UTF-8" standalone="no"?>
<!-- Created with Inkscape (http://www.inkscape.org/) -->

<svg
   width="190mm"
   height="200mm"
   viewBox="0 0 190 200"
   version="1.1"
   id="svg5"
   sodipodi:docname="br-3.svg"
   inkscape:version="1.1.1 (3bf5ae0d25, 2021-09-20)"
   xmlns:inkscape="http://www.inkscape.org/namespaces/inkscape"
   xmlns:sodipodi="http://sodipodi.sourceforge.net/DTD/sodipodi-0.dtd"
   xmlns="http://www.w3.org/2000/svg"
   xmlns:svg="http://www.w3.org/2000/svg">
  <sodipodi:namedview
     id="namedview7"
     pagecolor="#ffffff"
     bordercolor="#666666"
     borderopacity="1.0"
     inkscape:pageshadow="2"
     inkscape:pageopacity="0.0"
     inkscape:pagecheckerboard="0"
     inkscape:document-units="mm"
     showgrid="false"
     inkscape:snap-global="false"
     inkscape:zoom="1.0381216"
     inkscape:cx="350.15165"
     inkscape:cy="337.62903"
     inkscape:window-width="1920"
     inkscape:window-height="1009"
     inkscape:window-x="-8"
     inkscape:window-y="-8"
     inkscape:window-maximized="1"
     inkscape:current-layer="layer1" />
  <defs
     id="defs2" />
  <g
     inkscape:label="Layer 1"
     inkscape:groupmode="layer"
     id="layer1">
    <path
       style="fill:#1e9664;fill-opacity:1;stroke:#ffffff;stroke-width:3;stroke-linecap:butt;stroke-linejoin:miter;stroke-miterlimit:4;stroke-dasharray:none;stroke-opacity:1"
       d="m 124.83789,153.91844 -6.82564,-3.49607 -1.58154,-7.32506 -13.40156,-2.41395 7.74127,-12.06972 16.64789,0.0832 5.32732,13.31831 7.03079,-2.53338 1.70936,4.61437 -10.90437,4.66141 z"
       id="path939"
       sodipodi:nodetypes="ccccccccccc" />
    <path
       style="fill:#dae2e6;fill-opacity:1;stroke:#ffffff;stroke-width:3;stroke-linecap:butt;stroke-linejoin:miter;stroke-miterlimit:4;stroke-dasharray:none;stroke-opacity:1"
       d="m 124.83789,153.91844 -6.82564,-3.49607 -1.58154,-7.32506 -13.40156,-2.41395 -4.08539,1.94553 -3.346748,6.1926 -0.975066,5.92935 4.161972,3.66253 -0.665915,4.91113 -9.156339,5.24409 -8.323948,9.28119 13.348094,6.34293 8.51577,8.39972 19.58941,-24.39842 -0.70754,-9.36445 z"
       id="path1051"
       sodipodi:nodetypes="cccccccccccccccc" />
    <path
       style="fill:#dae2e6;fill-opacity:1;stroke:#ffffff;stroke-width:3;stroke-linecap:butt;stroke-linejoin:miter;stroke-miterlimit:4;stroke-dasharray:none;stroke-opacity:1"
       d="m 110.81361,128.6702 16.6047,0.0267 5.38715,13.47762 6.97096,-2.69269 1.70936,4.61437 11.4303,-0.85974 11.5364,-17.83433 0.0387,-5.41759 -4.82291,-4.10451 2.66525,-6.19331 -19.89441,-8.82893 -11.65411,4.82648 -3.53156,14.59711 -12.18385,1.41263 z"
       id="path1513"
       sodipodi:nodetypes="ccccccccccccccc" />
    <path
       style="fill:#dae2e6;fill-opacity:1;stroke:#ffffff;stroke-width:3;stroke-linecap:butt;stroke-linejoin:miter;stroke-miterlimit:4;stroke-dasharray:none;stroke-opacity:1"
       d="m 142.43914,100.85777 19.89441,8.82893 -2.66525,6.19331 4.82291,4.10451 2.37449,-2.8227 1.47147,-8.47574 -1.11831,-12.183891 18.77607,-22.601925 1.53034,-9.182033 -2.82523,-8.475723 -9.18204,-1.41262 -12.47815,-10.006061 -10.35921,0.117718 -18.12863,-7.533975 -6.00364,14.008486 -5.38841,4.237899 5.977,7.533937 4.94417,19.54125 0.5374,21.412058 z"
       id="path1572"
       sodipodi:nodetypes="cccccccccccccccccccc" />
    <path
       style="fill:#dae2e6;fill-opacity:1;stroke:#ffffff;stroke-width:3;stroke-linecap:butt;stroke-linejoin:miter;stroke-miterlimit:4;stroke-dasharray:none;stroke-opacity:1"
       d="m 98.94376,142.62889 4.08539,-1.94553 7.74127,-12.06972 4.2992,-6.91965 12.18385,-1.41263 3.53156,-14.59711 3.88533,-1.57781 -0.58923,-21.377298 -4.94417,-19.54125 -5.977,-7.533937 5.38841,-4.237899 6.00364,-14.008486 -17.12244,-7.7657 -8.65689,-16.231699 -10.98763,7.741274 -26.303673,2.996621 -5.327326,-16.1484608 -18.1462,4.3284528 2.663662,10.654655 -9.655777,5.160846 -8.490423,-5.493804 -9.15634,1.331832 -2.164227,27.801978 -14.4836665,4.494929 -3.8290149,12.818876 14.6501464,13.81775 12.652397,0.499438 12.485917,-5.660283 2.497186,11.653522 20.476905,8.490425 2.497183,11.320618 9.156339,1.16536 3.163099,9.82225 -2.497183,18.14622 9.709138,0.98081 1.571974,7.16597 6.341846,2.32204 z"
       id="path1632"
       sodipodi:nodetypes="cccccccccccccccccccccccccccccccccccccc" />
  </g>
</svg>
